<?xml version="1.0" standalone="no"?>
<!DOCTYPE svg PUBLIC "-//W3C//DTD SVG 20010904//EN"
 "http://www.w3.org/TR/2001/REC-SVG-20010904/DTD/svg10.dtd">
<svg version="1.0" xmlns="http://www.w3.org/2000/svg"
 width="2560.000000pt" height="2391.000000pt" viewBox="0 0 2560.000000 2391.000000"
 preserveAspectRatio="xMidYMid meet">

<g transform="translate(0.000000,2391.000000) scale(0.100000,-0.100000)"
fill="#000000" stroke="none">
<path d="M12390 23433 c-1274 -55 -2376 -269 -3552 -689 -831 -297 -1676 -724
-2453 -1239 -1295 -860 -2387 -1945 -3250 -3230 -822 -1225 -1414 -2619 -1709
-4027 -171 -814 -241 -1440 -253 -2263 -10 -740 31 -1336 142 -2020 193 -1193
547 -2285 1095 -3374 830 -1650 2063 -3098 3570 -4191 1399 -1015 3009 -1708
4679 -2016 748 -137 1388 -196 2136 -196 619 0 1059 31 1660 117 572 82 1016
178 1605 346 397 114 883 288 1300 467 2257 967 4155 2624 5423 4734 635 1057
1113 2256 1372 3441 135 621 207 1123 251 1757 22 310 25 1147 6 1445 -40 607
-104 1091 -222 1670 -335 1643 -1044 3218 -2060 4580 -1419 1902 -3359 3316
-5600 4080 -1037 353 -2117 554 -3255 605 -197 9 -714 11 -885 3z m1200 -57
c665 -50 1192 -128 1780 -262 1018 -232 1988 -595 2895 -1083 2606 -1404 4567
-3717 5520 -6512 336 -986 536 -2032 595 -3114 14 -247 14 -937 0 -1180 -82
-1484 -412 -2842 -1015 -4186 -97 -214 -301 -618 -427 -844 -941 -1682 -2252
-3080 -3868 -4126 -799 -517 -1684 -943 -2585 -1244 -369 -124 -543 -174 -890
-260 -340 -84 -545 -127 -828 -175 -1062 -178 -2069 -213 -3117 -109 -855 85
-1652 252 -2455 516 -1492 490 -2854 1269 -4040 2309 -2019 1772 -3362 4184
-3794 6814 -169 1024 -202 2023 -100 3035 142 1421 524 2742 1159 4015 575
1152 1306 2160 2227 3071 263 260 382 371 608 564 1925 1654 4350 2636 6850
2775 105 6 215 12 245 14 145 9 1050 -4 1240 -18z"/>
<path d="M12518 23309 l-78 -52 0 -84 c0 -64 3 -83 13 -77 6 3 45 27 84 53
l73 46 0 83 c0 45 -3 82 -7 82 -5 0 -43 -23 -85 -51z"/>
<path d="M12883 23309 l-83 -51 0 -79 c0 -47 4 -79 10 -79 15 0 142 80 158 99
13 16 17 161 5 161 -5 -1 -45 -24 -90 -51z"/>
<path d="M12146 23292 l-78 -57 6 -50 c3 -27 6 -65 6 -83 l0 -32 85 57 c84 57
86 59 80 93 -2 19 -5 56 -5 83 0 26 -3 47 -7 47 -5 -1 -43 -27 -87 -58z"/>
<path d="M13253 23302 l-83 -47 0 -82 c0 -46 2 -83 4 -83 4 0 156 88 163 94 7
6 13 166 7 165 -5 0 -46 -21 -91 -47z"/>
<path d="M11787 23272 l-78 -57 6 -80 c3 -43 8 -81 10 -83 2 -2 38 21 79 52
l76 56 -6 83 c-4 45 -7 83 -8 84 -1 1 -36 -24 -79 -55z"/>
<path d="M13625 23285 c-77 -43 -80 -46 -87 -87 -3 -24 -7 -62 -7 -86 l-1 -42
82 44 c45 25 85 50 89 58 8 16 17 158 9 157 -3 0 -41 -20 -85 -44z"/>
<path d="M11416 23230 c-68 -54 -77 -64 -72 -88 3 -15 8 -51 11 -80 4 -29 10
-52 14 -50 4 2 39 28 78 58 l72 55 -6 70 c-3 39 -9 76 -12 83 -5 9 -30 -5 -85
-48z"/>
<path d="M13989 23249 l-86 -41 -7 -75 c-4 -42 -5 -78 -2 -80 3 -3 43 13 90
35 l85 41 6 48 c3 26 8 63 11 81 3 17 1 32 -3 32 -5 0 -47 -19 -94 -41z"/>
<path d="M11049 23180 c-41 -33 -73 -66 -72 -73 1 -7 7 -44 13 -84 l12 -71 75
61 74 62 -6 70 c-4 38 -10 76 -14 83 -5 9 -28 -4 -82 -48z"/>
<path d="M14349 23203 l-77 -35 -11 -75 c-6 -42 -9 -78 -6 -81 2 -3 42 12 88
33 l84 37 12 68 c14 86 14 90 -1 89 -7 0 -47 -16 -89 -36z"/>
<path d="M10689 23122 l-72 -68 13 -69 c7 -39 15 -75 19 -82 4 -7 32 13 75 54
l69 65 -13 72 c-7 39 -12 77 -13 84 0 6 -1 12 -3 12 -1 0 -35 -31 -75 -68z"/>
<path d="M14723 23153 l-92 -35 -11 -69 c-18 -104 -18 -104 75 -63 44 19 84
39 89 44 8 8 39 150 34 156 -2 1 -44 -14 -95 -33z"/>
<path d="M15079 23084 l-86 -35 -13 -72 c-7 -40 -15 -77 -17 -84 -4 -9 168 49
186 63 5 4 30 125 31 147 0 22 0 22 -101 -19z"/>
<path d="M10326 23041 l-68 -69 16 -76 c10 -42 21 -76 24 -76 4 0 37 30 74 68
l66 67 -16 78 c-9 42 -19 77 -22 77 -3 0 -36 -31 -74 -69z"/>
<path d="M12435 23054 c-721 -31 -1269 -95 -1880 -220 -683 -140 -1276 -317
-1925 -576 -2575 -1028 -4697 -2992 -5925 -5483 -687 -1393 -1060 -2831 -1145
-4415 -22 -401 -11 -1025 25 -1470 152 -1862 764 -3646 1793 -5220 758 -1161
1748 -2193 2878 -3002 1656 -1186 3586 -1897 5599 -2062 378 -31 616 -39 1090
-33 454 5 647 15 1010 52 1439 147 2822 567 4103 1247 1638 869 3048 2139
4084 3678 391 582 735 1215 1007 1853 510 1197 783 2349 883 3722 20 269 16
1166 -5 1445 -103 1324 -375 2469 -859 3610 -802 1889 -2095 3515 -3763 4732
-915 668 -1965 1209 -3031 1564 -959 319 -1832 491 -2844 559 -211 14 -919 27
-1095 19z m1110 -53 c1565 -121 2920 -490 4265 -1162 1904 -952 3521 -2453
4618 -4285 305 -510 562 -1028 787 -1589 462 -1154 719 -2329 785 -3595 13
-250 13 -870 0 -1115 -68 -1283 -326 -2458 -796 -3622 -287 -714 -642 -1385
-1068 -2023 -1087 -1630 -2586 -2954 -4334 -3829 -610 -305 -1245 -553 -1917
-746 -626 -181 -1305 -311 -1975 -380 -656 -67 -1565 -67 -2220 0 -398 41
-795 103 -1190 185 -1150 241 -2234 653 -3256 1238 -1677 961 -3077 2332
-4068 3985 -469 782 -827 1584 -1101 2467 -446 1439 -590 2995 -420 4539 157
1424 607 2848 1298 4106 1101 2004 2777 3626 4807 4649 701 354 1357 604 2145
820 659 180 1479 315 2170 356 99 6 205 12 235 14 117 8 1102 -3 1235 -13z"/>
<path d="M12622 22819 c-119 -59 -179 -183 -117 -244 27 -27 66 -33 84 -11 6
7 18 36 26 63 31 105 127 140 223 81 58 -36 78 -110 49 -181 -20 -46 -85 -101
-145 -122 l-52 -19 0 -112 0 -111 -64 -6 c-126 -12 -226 -89 -307 -237 -111
-202 -165 -259 -323 -338 -59 -30 -86 -49 -86 -61 0 -39 41 -174 74 -246 85
-184 233 -333 419 -420 105 -50 177 -67 312 -72 137 -6 245 14 358 65 260 118
455 370 501 648 l7 41 -83 43 c-164 84 -210 129 -310 307 -104 184 -191 258
-323 270 -37 3 -62 9 -56 12 5 4 11 38 13 76 l3 70 50 27 c104 55 153 144 142
256 -13 150 -122 252 -268 252 -54 0 -77 -6 -127 -31z m566 -1299 c128 -68
232 -127 232 -131 0 -11 -171 -90 -258 -119 -124 -41 -245 -60 -393 -60 -151
0 -251 13 -368 46 -83 24 -301 121 -301 133 0 4 48 33 108 66 59 33 204 115
322 182 l215 122 105 -57 c58 -31 210 -113 338 -182z m-170 -491 c2 -27 -3
-41 -24 -62 l-27 -27 -212 0 c-197 0 -214 1 -238 20 -27 22 -41 61 -32 91 6
19 17 19 268 17 l262 -3 3 -36z"/>
<path d="M11165 21173 l-561 -287 -111 -210 c-61 -116 -195 -373 -299 -571
-103 -198 -236 -452 -296 -565 -83 -159 -105 -207 -95 -216 6 -7 224 -140 482
-296 259 -156 480 -291 492 -298 12 -8 24 -12 26 -10 2 3 64 112 137 243 113
201 137 237 154 235 l21 -3 3 -802 2 -803 1625 0 1625 0 2 803 3 802 24 0 c21
0 41 -30 155 -232 72 -127 134 -235 138 -238 3 -4 186 102 405 235 219 133
444 270 500 304 57 33 103 64 103 68 0 4 -38 79 -84 165 -45 87 -147 282 -226
433 -79 151 -158 304 -177 340 -20 36 -100 190 -180 342 l-145 278 -221 111
c-122 61 -376 190 -565 286 -235 120 -343 170 -346 161 -2 -7 -16 -49 -31 -93
-113 -333 -387 -593 -721 -682 -88 -23 -117 -26 -259 -26 -141 0 -172 3 -256
25 -346 93 -628 367 -731 710 -12 43 -25 78 -28 78 -3 0 -257 -130 -565 -287z
m-12 -793 c41 -107 114 -294 161 -414 l86 -219 0 -959 0 -960 -46 -59 c-26
-32 -51 -59 -55 -59 -5 0 -9 451 -9 1002 l0 1001 -84 316 c-92 343 -146 555
-146 568 1 17 21 -29 93 -217z m3212 -111 c-47 -178 -99 -377 -115 -441 l-30
-117 0 -1000 c0 -551 -4 -1001 -9 -1001 -4 0 -29 27 -55 59 l-46 59 0 960 0
960 104 268 c178 461 228 585 232 581 2 -2 -34 -150 -81 -328z m-837 -271 c8
-8 12 -52 12 -130 l0 -118 -830 0 -830 0 0 118 c0 78 4 122 12 130 17 17 1619
17 1636 0z m10 -520 c2 -196 0 -228 -14 -242 -12 -13 -38 -16 -119 -16 l-104
0 -64 108 -64 107 -461 3 -461 2 -64 -107 -63 -108 -106 -3 c-87 -2 -109 0
-122 13 -14 14 -16 48 -16 239 0 122 3 226 7 229 3 4 376 6 827 5 l821 -3 3
-227z m1992 62 c25 -25 26 -71 3 -98 -10 -11 -65 -49 -123 -85 -58 -35 -226
-139 -374 -230 -148 -92 -278 -167 -288 -167 -23 0 -68 43 -68 64 0 36 27 65
103 112 138 86 538 334 612 380 78 49 106 53 135 24z m-5319 -106 c101 -64
267 -168 369 -231 102 -64 193 -124 203 -135 23 -27 22 -67 -5 -95 -38 -41
-39 -40 -248 92 -80 50 -237 149 -350 220 -209 131 -250 162 -250 194 0 31 39
71 69 71 18 0 92 -41 212 -116z m2099 -69 c0 6 33 10 79 10 l78 1 -3 -41 c-2
-22 -5 -50 -8 -63 -3 -13 -10 -59 -17 -102 -6 -44 -14 -78 -18 -75 -4 2 -8
-10 -8 -28 -1 -42 -13 -149 -19 -158 -2 -4 -6 -24 -9 -45 -6 -37 -12 -76 -37
-224 -6 -36 -11 -73 -11 -82 -1 -10 -5 -18 -10 -18 -4 0 -6 -3 -4 -7 3 -5 -52
-8 -123 -8 -80 0 -127 4 -125 10 1 6 8 30 15 55 7 25 14 54 16 65 2 11 19 75
38 143 20 68 38 135 41 150 2 15 18 79 35 142 26 95 47 175 50 188 0 1 0 11 0
23 0 13 4 18 12 13 7 -4 8 -3 4 5 -5 7 -5 24 -1 39 5 20 8 23 16 11 5 -7 9 -9
9 -4z m605 3 c5 -14 115 -825 115 -845 0 -10 -36 -13 -145 -13 l-145 0 -1 38
c-1 20 -3 48 -5 62 -2 19 -6 673 -4 758 0 9 25 12 90 12 64 0 92 -4 95 -12z"/>
<path d="M13302 19948 c-23 -28 -18 -74 9 -88 52 -29 107 26 75 75 -18 27 -66
35 -84 13z m68 -13 c26 -32 -13 -81 -47 -59 -35 22 -23 74 17 74 10 0 23 -7
30 -15z"/>
<path d="M13294 19789 c-11 -18 12 -31 52 -27 27 2 40 8 42 21 3 14 -4 17 -42
17 -25 0 -48 -5 -52 -11z"/>
<path d="M13415 19790 c-11 -19 6 -30 46 -30 32 0 39 3 39 20 0 17 -7 20 -39
20 -22 0 -43 -4 -46 -10z"/>
<path d="M13190 19770 c0 -5 18 -10 39 -10 22 0 43 5 46 10 4 6 -12 10 -39 10
-25 0 -46 -4 -46 -10z"/>
<path d="M12451 19334 c0 -11 3 -14 6 -6 3 7 2 16 -1 19 -3 4 -6 -2 -5 -13z"/>
<path d="M17114 20909 c-31 -23 -67 -68 -79 -101 -5 -12 5 -23 38 -42 65 -38
90 -35 127 19 43 62 65 76 101 63 16 -5 29 -12 29 -15 0 -3 -42 -82 -94 -177
-264 -484 -334 -614 -345 -645 -32 -97 2 -218 82 -286 45 -39 59 -42 77 -20
10 12 7 20 -14 46 -14 17 -26 41 -26 54 0 52 1 54 412 808 38 70 72 127 76
127 4 0 18 -7 30 -16 28 -19 28 -53 1 -105 -31 -62 -23 -89 36 -121 28 -15 54
-28 58 -28 15 0 49 92 49 135 0 89 -36 123 -259 245 -125 68 -143 75 -203 78
-55 3 -70 0 -96 -19z"/>
<path d="M8308 20765 c-77 -28 -219 -108 -243 -137 -32 -38 -33 -91 -1 -149
177 -331 323 -589 347 -611 48 -46 97 -39 221 28 57 31 122 72 146 91 88 72
104 159 46 257 -11 18 -13 18 -65 -10 -63 -34 -68 -50 -44 -125 23 -69 10 -98
-65 -144 -32 -19 -62 -35 -67 -35 -10 0 -183 310 -183 327 0 5 30 26 68 47
101 55 96 50 82 75 -11 22 -12 22 -97 -24 -47 -25 -87 -44 -88 -43 -26 32
-175 324 -171 334 7 18 82 53 115 54 16 0 41 -18 77 -55 30 -30 59 -55 65 -55
6 0 36 14 65 31 49 28 53 32 43 52 -17 32 -60 77 -91 93 -34 17 -111 17 -160
-1z"/>
<path d="M18015 20421 c-91 -23 -121 -54 -277 -288 -165 -247 -163 -242 -163
-333 0 -64 4 -82 27 -121 100 -171 319 -223 449 -107 32 27 295 415 315 464
20 48 17 150 -5 200 -40 89 -126 156 -230 180 -62 15 -72 15 -116 5z m216
-110 c50 -51 38 -98 -64 -251 -27 -41 -52 -77 -53 -79 -2 -2 -56 2 -120 9 -88
10 -114 16 -110 26 12 31 169 256 201 289 48 47 102 49 146 6z m-243 -370 c41
-5 77 -12 80 -15 3 -4 -39 -72 -92 -152 -101 -150 -136 -184 -189 -184 -35 0
-97 57 -97 89 0 35 27 90 92 188 60 92 61 93 97 88 20 -3 69 -9 109 -14z"/>
<path d="M7667 20399 c-99 -23 -213 -110 -257 -196 -20 -38 -25 -63 -25 -118
0 -85 5 -93 183 -360 154 -231 174 -248 292 -253 68 -4 86 -1 137 22 142 65
223 166 210 261 -7 46 -38 119 -57 130 -14 9 -108 -52 -115 -74 -3 -10 6 -42
20 -72 40 -87 30 -141 -35 -174 -42 -22 -79 -18 -117 11 -37 28 -330 463 -370
549 -32 69 -30 109 6 145 58 58 110 52 179 -20 27 -28 55 -50 64 -50 19 0 118
59 118 70 0 14 -83 101 -109 114 -38 19 -81 24 -124 15z"/>
<path d="M18642 19935 c-33 -28 -413 -486 -458 -552 -50 -74 -27 -127 98 -228
108 -88 165 -115 244 -115 118 0 156 31 377 307 108 135 126 166 134 231 12
105 -35 186 -171 296 -84 69 -103 80 -144 84 -41 4 -52 0 -80 -23z m233 -138
c59 -57 65 -77 40 -131 -23 -48 -386 -488 -425 -513 -49 -34 -85 -30 -147 18
-29 23 -53 44 -53 48 0 8 -6 0 284 354 125 152 232 277 237 277 5 0 34 -24 64
-53z"/>
<path d="M6800 19881 c-34 -11 -108 -49 -113 -58 -3 -5 1 -17 8 -27 13 -17 18
-17 44 -6 36 15 68 8 105 -21 14 -11 118 -134 229 -272 204 -253 229 -285 210
-274 -31 19 -330 210 -463 295 -85 55 -173 105 -194 112 -53 17 -132 7 -194
-24 -60 -30 -64 -36 -48 -58 11 -15 18 -16 48 -6 65 20 94 -5 286 -243 95
-118 194 -238 219 -268 90 -105 210 -129 336 -67 61 30 63 32 43 58 -11 15
-18 16 -43 6 -44 -17 -83 -2 -133 51 -57 59 -284 341 -279 346 3 2 110 -64
239 -146 129 -83 251 -159 270 -170 34 -20 78 -71 112 -133 22 -39 23 -85 2
-115 -15 -21 -15 -24 0 -39 14 -15 18 -14 47 13 80 77 106 203 61 295 -12 25
-140 191 -285 370 -294 365 -311 380 -419 386 -35 2 -74 0 -88 -5z"/>
<path d="M15904 19399 c-10 -16 2 -23 116 -69 605 -242 1192 -573 1720 -971
603 -453 1153 -1012 1604 -1627 116 -158 336 -489 407 -612 35 -61 55 -87 65
-83 8 3 14 9 14 14 0 17 -176 298 -306 489 -681 998 -1565 1813 -2599 2397
-268 152 -622 322 -887 427 -132 52 -124 50 -134 35z"/>
<path d="M9500 19334 c-196 -84 -584 -282 -795 -404 -1028 -597 -1907 -1395
-2595 -2355 -142 -199 -320 -473 -320 -493 0 -38 43 15 192 238 284 425 504
704 855 1081 703 756 1610 1411 2553 1841 143 65 236 113 238 122 5 24 -14 20
-128 -30z"/>
<path d="M19277 19346 c-53 -20 -104 -64 -278 -246 -174 -181 -199 -221 -199
-316 0 -66 31 -142 74 -183 21 -19 24 -20 36 -6 10 12 10 21 1 41 -29 64 -7
107 123 234 l76 74 102 -33 c57 -18 106 -36 110 -40 9 -8 -418 -437 -453 -457
-30 -16 -74 -18 -101 -3 -16 9 -24 8 -36 -5 -21 -21 -6 -38 71 -76 46 -23 74
-30 116 -30 102 0 129 20 419 312 144 145 273 280 286 299 55 82 61 164 17
254 -71 147 -232 228 -364 181z m233 -101 c16 -9 37 -29 46 -46 14 -29 14 -35
0 -73 -10 -25 -50 -78 -99 -130 l-82 -87 -114 38 -113 39 101 106 c103 108
179 168 213 168 11 0 32 -7 48 -15z"/>
<path d="M6043 19189 c-41 -8 -101 -35 -138 -64 -18 -14 -18 -16 -3 -32 14
-14 21 -14 47 -4 68 29 89 12 395 -311 193 -203 233 -234 315 -245 51 -7 137
19 190 58 39 28 42 33 28 46 -12 13 -20 13 -49 3 -20 -8 -47 -10 -63 -6 -35 9
-136 106 -347 333 -196 211 -253 245 -375 222z"/>
<path d="M9865 19077 c-832 -342 -1554 -789 -2239 -1386 -175 -152 -581 -561
-737 -741 -243 -280 -521 -651 -692 -922 -54 -87 -64 -113 -40 -113 6 0 69 88
140 195 571 860 1288 1583 2143 2162 483 327 976 586 1558 818 32 13 38 33 11
38 -8 1 -72 -22 -144 -51z"/>
<path d="M15657 19085 c-4 -10 0 -18 11 -22 166 -57 506 -204 727 -313 736
-364 1349 -809 1931 -1402 386 -394 686 -771 974 -1225 148 -235 145 -231 160
-217 14 14 -20 74 -195 339 -845 1281 -1998 2224 -3406 2786 -180 72 -194 75
-202 54z"/>
<path d="M19941 18966 c-9 -11 -9 -20 -2 -35 30 -56 7 -96 -124 -210 -65 -57
-112 -106 -121 -127 -18 -43 -17 -138 1 -189 8 -22 15 -41 15 -42 0 -1 -83
-72 -185 -158 -221 -187 -240 -212 -240 -325 0 -57 6 -84 22 -115 38 -71 47
-79 70 -65 19 12 20 16 6 47 -26 64 1 98 238 297 l210 177 46 -22 c67 -32 139
-36 194 -11 34 16 190 140 254 203 14 14 -63 88 -100 95 -46 8 -89 -14 -180
-91 -44 -38 -93 -77 -110 -87 -45 -27 -91 -23 -125 11 -66 65 -48 114 86 230
111 96 144 151 144 238 0 56 -28 143 -56 174 -21 23 -28 24 -43 5z"/>
<path d="M5735 18801 c-55 -25 -147 -125 -170 -184 -42 -110 2 -241 99 -302
70 -42 152 -45 368 -10 187 30 224 26 270 -22 39 -42 51 -71 43 -109 -7 -40
-61 -98 -99 -108 -27 -7 -81 13 -137 50 -35 23 -66 12 -108 -37 -33 -39 -33
-40 -15 -60 10 -12 38 -32 62 -46 88 -52 178 -28 274 75 74 79 83 102 83 218
0 93 -2 103 -28 143 -38 57 -109 91 -192 91 -33 0 -131 -11 -218 -25 -87 -14
-173 -25 -192 -25 -71 0 -149 56 -161 116 -11 58 49 134 106 134 16 0 51 -16
80 -35 29 -19 62 -35 74 -35 13 0 40 19 65 44 l44 45 -29 25 c-40 35 -123 76
-153 76 -15 0 -44 -9 -66 -19z"/>
<path d="M15750 18690 c-20 -20 -20 -33 -20 -1421 0 -946 3 -1407 10 -1420 8
-13 21 -19 46 -19 28 0 36 5 44 26 7 17 9 524 8 1426 -3 1372 -3 1400 -22
1414 -27 19 -42 18 -66 -6z"/>
<path d="M15170 18562 c-41 -13 -40 20 -40 -1365 0 -896 3 -1335 10 -1348 13
-24 62 -25 81 -2 12 13 14 234 17 1334 1 830 -1 1326 -7 1342 -11 29 -39 47
-61 39z"/>
<path d="M9732 18458 c-17 -17 -17 -2599 0 -2616 22 -22 64 -14 76 13 9 19 12
353 12 1295 0 942 -3 1276 -12 1295 -12 27 -54 35 -76 13z"/>
<path d="M10330 18451 c-7 -13 -10 -437 -10 -1301 0 -864 3 -1288 10 -1301 7
-12 21 -19 40 -19 19 0 33 7 40 19 7 13 10 437 10 1301 0 864 -3 1288 -10
1301 -7 12 -21 19 -40 19 -19 0 -33 -7 -40 -19z"/>
<path d="M16358 18409 c-17 -9 -18 -81 -18 -1282 0 -977 3 -1276 12 -1285 19
-19 66 -15 78 7 7 13 10 430 10 1280 l0 1260 -22 15 c-26 18 -36 19 -60 5z"/>
<path d="M9120 18361 c-14 -27 -14 -2485 0 -2512 7 -13 21 -19 45 -19 24 0 38
6 45 19 14 27 14 2485 0 2512 -7 13 -21 19 -45 19 -24 0 -38 -6 -45 -19z"/>
<path d="M14547 18072 c-16 -17 -17 -109 -17 -1111 0 -734 3 -1099 10 -1112
12 -22 59 -26 78 -7 9 9 12 270 12 1113 0 1055 -1 1103 -18 1118 -24 22 -45
21 -65 -1z"/>
<path d="M16958 18039 c-17 -9 -18 -72 -18 -1097 0 -833 3 -1091 12 -1100 7
-7 24 -12 38 -12 14 0 31 5 38 12 9 9 12 267 12 1100 0 1065 0 1088 -19 1098
-24 12 -41 12 -63 -1z"/>
<path d="M8532 18004 l-22 -15 0 -1060 c0 -712 3 -1067 10 -1080 13 -22 62
-26 79 -5 8 10 11 301 11 1082 0 995 -1 1070 -17 1082 -22 16 -34 15 -61 -4z"/>
<path d="M17556 17574 c-14 -14 -16 -106 -16 -860 0 -564 3 -852 10 -865 12
-22 59 -26 78 -7 17 17 17 1719 0 1736 -17 17 -54 15 -72 -4z"/>
<path d="M4895 17568 c-2 -7 -11 -51 -21 -96 -19 -91 -19 -91 -101 -112 -66
-17 -56 -37 40 -90 l82 -46 0 -69 c0 -95 18 -98 100 -15 33 33 67 60 77 60 9
0 40 -9 68 -20 84 -33 89 -16 30 101 l-41 80 41 48 c22 26 40 55 40 66 0 16
-6 17 -67 11 -38 -4 -84 -9 -104 -13 -36 -5 -38 -4 -73 51 -34 53 -62 71 -71
44z"/>
<path d="M7920 17531 c-15 -30 -14 -1673 2 -1689 7 -7 24 -12 38 -12 14 0 31
5 38 12 16 16 17 1659 2 1689 -7 12 -21 19 -40 19 -19 0 -33 -7 -40 -19z"/>
<path d="M10949 17447 l-24 -13 -3 -782 c-1 -529 1 -789 8 -803 15 -27 64 -25
84 3 14 20 16 111 16 786 0 501 -4 770 -10 782 -16 31 -43 40 -71 27z"/>
<path d="M11560 17452 c-40 -12 -40 -6 -40 -813 0 -694 2 -779 16 -793 22 -23
71 -20 84 3 13 25 14 1539 1 1574 -10 25 -35 37 -61 29z"/>
<path d="M12749 17447 l-24 -13 -3 -788 c-1 -574 1 -792 9 -802 18 -22 66 -17
83 8 14 20 16 111 16 786 0 501 -4 770 -10 782 -16 31 -43 40 -71 27z"/>
<path d="M12142 17438 c-17 -17 -17 -1579 0 -1596 19 -19 66 -15 78 7 15 30
14 1573 -2 1589 -7 7 -24 12 -38 12 -14 0 -31 -5 -38 -12z"/>
<path d="M13330 17431 c-7 -13 -10 -278 -10 -791 0 -513 3 -778 10 -791 7 -13
21 -19 45 -19 24 0 38 6 45 19 13 26 14 1539 0 1575 -8 21 -16 26 -44 26 -25
0 -38 -6 -46 -19z"/>
<path d="M13942 17438 c-17 -17 -17 -1579 0 -1596 19 -19 66 -15 78 7 7 13 10
278 10 791 0 513 -3 778 -10 791 -12 22 -59 26 -78 7z"/>
<path d="M20609 17428 c0 -2 -11 -46 -23 -98 l-21 -95 -60 -15 c-46 -12 -61
-20 -63 -35 -2 -16 15 -29 83 -65 l86 -45 -3 -70 c-4 -97 13 -98 102 -10 l67
66 54 -20 c64 -25 89 -26 89 -6 0 9 -18 52 -40 96 l-41 80 41 48 c22 27 40 57
40 66 0 16 -8 17 -82 11 -46 -4 -92 -10 -104 -12 -16 -4 -28 6 -57 50 -21 31
-44 56 -52 56 -8 0 -15 -1 -16 -2z"/>
<path d="M18156 17008 c-14 -20 -16 -91 -16 -575 0 -334 4 -562 10 -577 8 -21
16 -26 44 -26 25 0 38 6 46 19 6 13 10 212 10 578 0 608 0 603 -55 603 -13 0
-31 -10 -39 -22z"/>
<path d="M7319 16963 c-11 -13 -15 -115 -17 -551 -2 -469 -1 -538 13 -558 20
-30 70 -33 85 -5 6 13 10 205 10 556 0 351 -4 543 -10 556 -13 24 -62 26 -81
2z"/>
<path d="M18756 16288 c-13 -19 -16 -57 -16 -218 0 -217 6 -240 59 -240 49 0
51 8 51 240 0 155 -3 219 -12 228 -20 20 -65 14 -82 -10z"/>
<path d="M6716 16228 c-13 -18 -16 -55 -16 -194 0 -153 2 -173 18 -187 25 -23
69 -22 82 2 6 12 10 93 10 194 0 156 -2 176 -18 190 -26 23 -58 21 -76 -5z"/>
<path d="M8652 15736 c40 -37 72 -93 82 -145 7 -38 8 -31 -154 -656 -60 -231
-145 -562 -190 -735 -44 -173 -84 -324 -89 -335 -5 -12 -33 -47 -62 -79 l-53
-58 17 -67 c10 -36 17 -84 17 -105 0 -22 -56 -258 -124 -525 -69 -267 -179
-702 -246 -966 -155 -612 -143 -571 -194 -636 -34 -44 -60 -63 -122 -94 -67
-33 -87 -39 -141 -38 l-64 1 6 -47 c8 -54 46 -139 82 -181 52 -62 155 -100
273 -100 92 0 234 89 278 176 l18 35 12 -74 c29 -171 166 -277 342 -265 95 7
168 43 241 120 32 34 59 64 59 67 0 3 -20 14 -45 24 -50 21 -132 104 -160 163
-40 85 -39 92 171 894 47 179 90 342 95 362 29 111 146 162 299 131 41 -8 80
-18 85 -23 6 -4 43 -18 84 -30 63 -20 89 -22 186 -18 116 5 167 21 252 78 29
20 32 20 37 3 3 -10 64 -250 136 -533 72 -283 145 -566 161 -629 28 -103 30
-119 20 -173 -6 -33 -23 -80 -38 -104 -31 -48 -103 -108 -152 -125 -17 -6 -31
-17 -31 -24 0 -28 100 -116 166 -147 58 -27 78 -31 158 -32 77 -1 98 3 136 22
99 52 155 130 174 243 l11 67 56 -66 c126 -150 273 -181 444 -96 96 48 149
126 162 236 6 46 4 51 -11 45 -30 -12 -151 11 -199 38 -57 32 -152 133 -160
172 -7 31 -199 775 -393 1523 -78 305 -127 511 -126 536 1 22 11 67 22 99 l20
58 -48 48 c-27 27 -56 63 -66 81 -9 18 -59 197 -111 398 -235 903 -335 1302
-335 1327 1 41 33 103 74 142 20 19 36 39 36 43 0 27 -432 -9 -555 -46 -47
-15 -56 -14 -160 9 -149 33 -234 45 -335 45 l-85 0 37 -34z m688 -2116 l-24
-70 43 -43 c67 -64 86 -102 115 -227 15 -63 29 -122 32 -132 4 -15 -22 -17
-313 -20 -175 -2 -319 -3 -321 -2 -1 0 12 61 29 135 31 131 66 210 108 242 9
7 24 22 34 33 16 19 16 24 2 57 -40 95 -39 112 16 314 28 104 67 247 86 318
19 72 38 134 41 140 3 5 44 -144 91 -332 l86 -342 -25 -71z"/>
<path d="M17783 15736 c42 -40 87 -126 87 -169 0 -15 -33 -155 -74 -310 -41
-155 -96 -365 -121 -467 -26 -102 -89 -346 -141 -543 -52 -198 -94 -364 -94
-370 0 -6 -28 -44 -61 -85 l-61 -75 12 -41 c34 -109 34 -109 -55 -456 -46
-179 -122 -478 -169 -665 -47 -187 -128 -505 -180 -707 l-93 -368 -47 -55
c-64 -75 -172 -129 -260 -130 l-61 -1 3 -35 c6 -67 44 -149 92 -200 81 -85
271 -115 379 -60 56 29 137 105 160 150 l18 34 7 -59 c24 -209 223 -329 437
-264 67 20 80 29 141 92 38 38 68 73 68 76 0 4 -22 17 -49 30 -83 38 -180 170
-181 246 0 30 99 431 226 916 83 315 94 338 172 373 82 36 168 26 352 -39 69
-24 84 -26 195 -22 125 5 155 14 251 77 l30 21 22 -73 c11 -39 55 -207 97
-372 42 -165 108 -423 147 -574 77 -302 79 -320 32 -418 -28 -57 -102 -124
-160 -143 -19 -6 -34 -14 -34 -18 0 -20 61 -87 108 -119 79 -52 124 -66 222
-67 99 -1 152 19 219 84 53 51 68 84 84 174 l12 74 52 -63 c36 -44 72 -75 120
-102 65 -36 72 -38 158 -38 80 1 97 4 155 32 36 18 82 49 103 70 41 43 77 131
77 189 0 30 -3 36 -18 32 -37 -10 -154 13 -193 38 -55 34 -115 90 -138 127
-11 18 -36 97 -56 177 -35 140 -160 624 -381 1475 -59 229 -106 428 -105 451
1 23 10 67 21 99 l20 58 -53 56 c-28 32 -57 68 -64 82 -11 21 -120 436 -293
1114 -34 132 -81 315 -106 406 -24 91 -44 177 -44 191 0 44 30 101 78 151 l46
47 -115 0 c-120 0 -352 -28 -452 -55 -52 -13 -65 -13 -115 -1 -137 35 -215 48
-337 53 l-130 5 38 -36z m625 -1694 c45 -180 83 -338 82 -351 0 -13 -10 -51
-22 -83 l-21 -60 40 -36 c68 -63 90 -107 123 -246 17 -71 29 -130 28 -132 -5
-5 -638 -9 -638 -4 0 3 16 65 34 138 34 134 61 191 112 235 43 36 45 50 24
113 -11 31 -20 73 -20 93 0 20 32 158 71 306 40 149 76 289 82 313 6 23 13 42
16 42 3 0 43 -147 89 -328z"/>
<path d="M20760 15763 c0 -3 36 -45 80 -94 l80 -87 0 -864 0 -863 -39 -64 -40
-64 20 -28 c10 -15 28 -47 39 -71 19 -42 20 -71 20 -1093 l0 -1050 -25 -53
c-40 -87 -123 -152 -219 -172 -55 -11 -57 -13 -51 -37 17 -67 103 -161 192
-208 56 -30 200 -28 263 3 71 34 152 118 177 182 21 55 21 55 29 25 20 -78 90
-156 184 -206 l45 -24 794 -3 c437 -1 798 1 802 5 4 5 11 389 15 856 l7 847
-39 0 c-61 -1 -221 -45 -301 -85 -83 -41 -167 -114 -211 -183 -17 -26 -40 -82
-52 -125 -21 -76 -21 -82 -6 -195 10 -79 25 -142 45 -194 33 -82 41 -168 21
-238 -13 -47 -63 -106 -113 -133 -41 -22 -48 -22 -437 -22 l-395 0 -3 2123 -2
2122 -440 0 c-242 0 -440 -3 -440 -7z"/>
<path d="M2839 15743 c5 -10 44 -52 85 -93 l76 -74 0 -852 c0 -849 0 -852 -21
-900 -12 -27 -30 -59 -40 -72 -17 -23 -17 -25 21 -95 l40 -72 0 -1044 0 -1043
-30 -63 c-37 -79 -121 -147 -211 -172 l-57 -16 13 -45 c17 -56 109 -152 175
-185 68 -33 206 -31 275 3 78 39 148 115 176 190 l23 63 11 -51 c38 -168 233
-270 413 -217 72 22 172 99 198 155 40 83 40 87 -7 94 -22 4 -62 17 -88 31
-60 30 -147 124 -161 173 -11 40 -12 1411 -1 1890 l6 273 88 -258 c87 -252
194 -566 472 -1378 l137 -400 -62 -57 c-57 -53 -104 -78 -172 -92 -35 -8 -35
-17 1 -92 22 -47 42 -72 83 -102 78 -58 93 -64 182 -69 112 -7 174 17 261 100
51 50 66 71 76 110 6 26 15 47 19 47 4 0 12 -17 18 -37 15 -50 88 -131 159
-179 58 -39 58 -39 158 -38 71 1 111 6 139 18 73 33 169 140 191 214 5 19 3
22 -20 22 -34 0 -123 37 -153 64 -13 12 -37 38 -54 58 l-29 37 51 163 c85 268
314 977 449 1388 l126 385 3 -1013 2 -1014 -29 -62 c-22 -45 -45 -74 -88 -109
-53 -43 -74 -53 -155 -71 -53 -12 -24 -89 63 -172 72 -67 130 -89 239 -89 71
0 93 4 134 25 93 48 151 116 191 225 6 16 10 10 21 -29 7 -27 26 -68 42 -90
38 -53 124 -112 186 -127 63 -15 160 -7 218 19 81 35 170 132 193 210 5 18 2
22 -14 22 -75 0 -193 75 -244 155 l-32 50 0 1076 0 1076 39 58 c31 47 36 62
27 74 -6 9 -24 41 -39 71 l-27 55 -5 945 -5 945 -457 3 c-252 1 -458 -2 -458
-6 0 -5 9 -17 20 -27 11 -10 38 -42 61 -71 l40 -52 -80 -249 c-121 -379 -450
-1414 -615 -1938 -161 -510 -271 -845 -276 -845 -6 0 -65 165 -250 710 -82
239 -216 635 -300 880 -83 245 -237 699 -342 1010 -105 311 -195 571 -201 578
-7 9 -109 12 -449 12 -415 0 -438 -1 -429 -17z"/>
<path d="M10980 15744 c0 -3 36 -45 80 -92 l80 -86 0 -839 c0 -578 -3 -852
-11 -882 -6 -24 -26 -62 -45 -83 l-34 -40 20 -25 c11 -14 31 -49 45 -79 l25
-53 0 -675 c0 -613 2 -689 20 -828 57 -444 279 -774 627 -932 144 -65 252 -95
419 -115 296 -37 568 8 825 136 242 120 430 380 524 726 51 185 55 261 55 991
l0 674 31 67 c18 36 38 78 45 92 12 25 11 30 -17 69 -74 102 -69 19 -69 1053
l0 927 -450 0 c-247 0 -450 -3 -450 -8 0 -4 41 -48 91 -97 l91 -90 -5 -858 -5
-859 -38 -55 c-31 -46 -36 -58 -26 -71 7 -10 24 -39 37 -67 l25 -50 0 -635 c0
-784 -6 -854 -93 -1040 -41 -90 -140 -209 -202 -246 -86 -50 -192 -65 -319
-44 -81 13 -137 43 -200 106 -94 95 -146 239 -165 461 -7 71 -11 390 -11 765
l0 643 30 54 c17 30 30 58 30 62 0 5 -14 32 -32 61 l-31 53 -5 958 -4 957
-444 0 c-244 0 -444 -3 -444 -6z"/>
<path d="M13950 15734 c0 -3 36 -46 81 -94 l80 -88 59 -294 c181 -902 280
-1407 280 -1432 0 -15 -11 -47 -25 -70 l-25 -43 55 -72 c30 -40 57 -83 60 -94
3 -12 95 -478 206 -1036 147 -743 199 -1024 194 -1050 -18 -97 -96 -188 -180
-211 -28 -7 -51 -14 -53 -16 -9 -6 36 -74 82 -122 58 -62 163 -117 243 -128
110 -14 252 41 334 130 l37 40 50 -46 c60 -56 176 -117 244 -127 55 -9 159 14
230 50 69 35 188 158 188 195 0 7 -26 20 -57 29 -78 23 -141 87 -168 170 l-18
60 31 155 c17 85 108 533 202 995 94 462 176 866 182 897 9 44 22 70 59 116
l48 58 -24 67 -25 67 86 418 c166 812 294 1451 294 1466 0 14 -51 16 -455 16
-250 0 -455 -3 -455 -6 0 -3 34 -47 75 -96 41 -49 75 -93 75 -97 0 -10 -224
-1122 -289 -1439 -53 -254 -64 -282 -137 -362 l-24 -26 25 -59 c13 -33 25 -74
25 -91 0 -40 -142 -739 -153 -750 -3 -3 -110 524 -142 707 -5 25 1 58 19 112
l26 76 -59 78 c-56 75 -59 82 -80 188 -12 61 -57 299 -102 530 -69 362 -197
1018 -230 1183 l-10 52 -430 0 c-236 0 -429 -3 -429 -6z"/>
<path d="M5000 11037 c0 -2 9 -77 20 -167 94 -760 274 -1428 572 -2130 194
-457 455 -930 747 -1355 908 -1321 2226 -2354 3704 -2904 790 -294 1533 -448
2357 -491 1469 -75 2922 262 4203 977 899 501 1678 1162 2326 1973 827 1034
1378 2266 1596 3565 29 176 30 195 10 195 -8 0 -15 -3 -15 -7 0 -5 -14 -87
-30 -183 -238 -1384 -830 -2654 -1739 -3730 -309 -366 -717 -762 -1091 -1059
-1177 -936 -2553 -1502 -4035 -1660 -521 -56 -1086 -58 -1610 -5 -457 46 -961
143 -1392 270 -1498 439 -2806 1297 -3817 2504 -549 655 -997 1425 -1314 2260
-215 564 -371 1213 -443 1843 -10 93 -14 107 -30 107 -11 0 -19 -1 -19 -3z"/>
<path d="M6717 10962 c-16 -17 -17 -155 -17 -1785 l0 -1766 26 -20 c21 -17 30
-19 48 -9 11 6 24 16 28 22 4 6 8 806 8 1778 0 1593 -2 1768 -16 1782 -21 21
-57 20 -77 -2z"/>
<path d="M13336 10964 c-14 -14 -16 -75 -16 -528 0 -556 -1 -548 55 -548 56 0
55 -8 55 547 0 483 -1 513 -18 528 -23 21 -56 22 -76 1z"/>
<path d="M13942 10968 c-9 -9 -12 -141 -12 -532 0 -287 4 -526 8 -532 14 -20
45 -25 68 -9 l24 15 0 520 c0 458 -2 520 -16 534 -18 19 -55 21 -72 4z"/>
<path d="M14542 10968 c-9 -9 -12 -142 -12 -535 l0 -523 25 -16 c23 -15 27
-15 50 0 l25 16 0 523 c0 393 -3 526 -12 535 -7 7 -24 12 -38 12 -14 0 -31 -5
-38 -12z"/>
<path d="M16352 10968 c-9 -9 -12 -143 -12 -540 l0 -528 26 -11 c20 -7 32 -6
50 6 l24 15 0 520 c0 458 -2 520 -16 534 -18 19 -55 21 -72 4z"/>
<path d="M4634 10878 c99 -734 219 -1245 433 -1838 386 -1071 984 -2041 1761
-2860 864 -910 1841 -1567 3023 -2033 444 -175 1015 -335 1489 -416 1026 -177
1896 -175 2950 5 313 54 730 161 1124 290 158 52 595 223 746 292 911 416
1690 950 2399 1647 604 594 1092 1246 1496 2000 110 204 125 235 247 505 286
632 498 1346 613 2064 23 140 25 170 14 177 -8 4 -17 5 -20 1 -3 -4 -16 -72
-28 -152 -178 -1166 -617 -2291 -1280 -3280 -783 -1169 -1829 -2101 -3091
-2752 -841 -434 -1833 -733 -2775 -837 -359 -40 -492 -46 -945 -46 -477 1
-655 11 -1055 61 -459 58 -1037 188 -1471 332 -1276 424 -2388 1119 -3318
2073 -960 985 -1640 2159 -2020 3486 -97 340 -170 692 -228 1096 -29 203 -34
227 -51 227 -16 0 -17 -6 -13 -42z"/>
<path d="M18764 10866 c-19 -14 -19 -45 -22 -1743 -1 -950 0 -1742 3 -1759 7
-39 41 -58 76 -40 l24 12 3 1754 2 1755 -21 18 c-26 21 -39 21 -65 3z"/>
<path d="M7325 10846 l-25 -25 2 -2072 3 -2071 23 -18 c24 -20 49 -17 70 8 9
13 12 445 12 2086 0 1139 -4 2076 -8 2082 -4 6 -17 16 -30 23 -19 10 -26 8
-47 -13z"/>
<path d="M6122 10804 l-22 -15 0 -1199 c0 -1076 2 -1200 16 -1214 18 -19 55
-21 72 -4 9 9 12 293 12 1214 0 1080 -2 1204 -16 1218 -19 20 -34 20 -62 0z"/>
<path d="M9130 10800 c-19 -19 -20 -33 -20 -444 0 -233 3 -432 6 -441 11 -27
53 -38 80 -20 l24 15 0 440 0 439 -22 15 c-30 21 -44 20 -68 -4z"/>
<path d="M12147 10808 c-16 -12 -17 -49 -15 -462 3 -446 3 -449 24 -456 12 -5
31 -3 45 4 l24 12 3 438 c2 398 1 441 -14 458 -20 21 -43 23 -67 6z"/>
<path d="M12737 10802 c-15 -17 -17 -63 -17 -455 l0 -437 24 -15 c35 -23 73
-6 81 37 3 18 5 219 3 446 -3 396 -4 414 -22 428 -27 19 -50 18 -69 -4z"/>
<path d="M16958 10809 c-17 -9 -18 -42 -18 -458 l0 -448 26 -12 c22 -10 31 -9
50 4 l24 15 0 445 c0 429 -1 445 -19 455 -24 12 -41 12 -63 -1z"/>
<path d="M17556 10802 c-15 -17 -16 -60 -14 -458 l3 -438 24 -12 c14 -7 33 -9
45 -4 21 7 21 10 24 456 2 413 1 450 -15 462 -24 17 -47 15 -67 -6z"/>
<path d="M18160 10800 c-19 -19 -20 -33 -20 -448 0 -465 0 -464 55 -464 55 0
55 -1 55 464 0 415 -1 429 -20 448 -11 11 -27 20 -35 20 -8 0 -24 -9 -35 -20z"/>
<path d="M19972 10804 l-22 -15 0 -480 c0 -312 4 -487 10 -500 12 -22 59 -26
78 -7 9 9 12 135 12 505 0 476 -1 493 -19 503 -26 13 -33 13 -59 -6z"/>
<path d="M8532 10784 l-22 -15 0 -428 c0 -369 2 -430 15 -441 18 -15 63 -16
77 -2 6 6 9 162 9 443 -1 392 -3 435 -18 447 -22 16 -34 15 -61 -4z"/>
<path d="M5512 10758 c-17 -17 -17 -939 0 -956 7 -7 24 -12 38 -12 14 0 31 5
38 12 17 17 17 939 0 956 -7 7 -24 12 -38 12 -14 0 -31 -5 -38 -12z"/>
<path d="M9731 10756 c-8 -9 -10 -132 -9 -436 3 -419 3 -423 24 -430 12 -5 31
-3 45 4 l24 12 3 416 c2 369 0 418 -14 432 -19 20 -58 21 -73 2z"/>
<path d="M10332 10758 c-9 -9 -12 -118 -12 -430 l0 -418 25 -16 c23 -15 27
-15 50 0 l25 16 0 418 c0 312 -3 421 -12 430 -7 7 -24 12 -38 12 -14 0 -31 -5
-38 -12z"/>
<path d="M10932 10758 c-9 -9 -12 -118 -12 -429 0 -358 2 -418 15 -429 19 -16
63 -16 78 -1 9 9 13 124 15 418 2 353 1 409 -13 429 -17 26 -62 33 -83 12z"/>
<path d="M11537 10752 c-15 -17 -17 -61 -17 -423 0 -440 0 -441 55 -441 55 0
55 0 55 443 0 357 -2 410 -16 423 -21 21 -57 20 -77 -2z"/>
<path d="M15142 10758 c-9 -9 -12 -118 -12 -430 l0 -418 23 -14 c29 -20 66
-10 78 21 5 13 9 201 9 416 0 339 -2 396 -16 415 -17 24 -62 30 -82 10z"/>
<path d="M15747 10752 c-15 -17 -17 -61 -17 -423 0 -440 0 -441 55 -441 55 0
55 1 55 437 0 346 -2 404 -16 423 -18 27 -55 29 -77 4z"/>
<path d="M19362 10758 c-17 -17 -17 -2459 0 -2476 7 -7 24 -12 38 -12 14 0 31
5 38 12 16 16 18 2439 2 2469 -12 22 -59 26 -78 7z"/>
<path d="M7922 10738 c-9 -9 -12 -116 -12 -420 l0 -408 25 -16 c23 -15 27 -15
50 0 l25 16 0 408 c0 304 -3 411 -12 420 -7 7 -24 12 -38 12 -14 0 -31 -5 -38
-12z"/>
<path d="M7821 9802 c2 -6 32 -43 67 -81 l62 -70 -2 -695 -3 -694 -31 -44 -30
-43 30 -50 31 -50 3 -848 c2 -820 2 -848 -17 -885 -36 -70 -136 -141 -198
-142 -27 0 -28 -9 -9 -54 20 -47 73 -104 120 -129 60 -31 184 -31 243 1 63 33
109 77 134 128 l22 46 22 -47 c46 -94 114 -142 219 -152 130 -12 244 63 281
185 5 18 3 22 -17 22 -39 0 -121 45 -157 85 -64 73 -61 39 -61 783 l0 679 163
6 c175 5 245 19 392 76 302 116 556 408 641 736 35 134 43 322 20 453 -70 402
-392 702 -820 767 -125 18 -1111 34 -1105 17z m1031 -532 c229 -70 364 -278
337 -516 -32 -289 -252 -473 -566 -474 l-93 0 0 505 0 505 129 0 c100 0 143
-4 193 -20z"/>
<path d="M9990 9801 c0 -7 29 -43 65 -81 l65 -70 -2 -688 -3 -688 -32 -49 -32
-49 35 -61 34 -62 0 -832 c0 -824 0 -832 -21 -876 -33 -71 -133 -144 -196
-145 -28 0 -29 -19 -4 -68 75 -146 260 -184 405 -84 43 30 96 104 97 136 0 13
9 1 24 -31 28 -62 93 -127 143 -145 57 -19 180 -16 222 6 48 25 98 74 121 118
25 48 24 68 -1 68 -57 0 -156 73 -191 141 -18 37 -19 67 -19 724 l0 685 114 0
c63 0 121 2 129 5 14 6 24 -20 395 -1040 52 -143 100 -280 108 -304 28 -88
-23 -179 -112 -203 -24 -7 -44 -15 -44 -20 0 -4 25 -34 56 -67 38 -41 77 -71
122 -93 58 -29 76 -33 147 -33 66 0 86 4 117 23 45 28 74 73 83 129 l7 42 60
-64 c79 -85 157 -124 259 -131 64 -5 80 -2 118 18 62 32 85 67 86 129 l0 51
-55 15 c-75 19 -153 68 -209 130 -40 45 -55 75 -113 235 -114 309 -245 670
-348 953 -54 149 -110 303 -125 342 l-27 73 96 91 c120 114 183 197 246 324
143 288 155 626 32 896 -119 264 -379 461 -697 531 -81 18 -142 20 -622 25
-402 4 -533 3 -533 -6z m971 -511 c88 -16 196 -75 264 -144 101 -102 142 -216
132 -365 -19 -297 -251 -500 -569 -501 l-88 0 0 510 0 510 104 0 c57 0 128 -4
157 -10z"/>
<path d="M16398 9803 c-32 -2 -58 -7 -58 -11 0 -4 -9 -72 -20 -152 -22 -168
-95 -821 -110 -990 -5 -63 -12 -136 -15 -162 -5 -45 -4 -48 18 -48 46 0 183
40 253 75 200 98 262 276 185 528 -41 135 -41 204 3 261 42 56 86 72 209 81
l107 7 -2 -564 -3 -563 -31 -45 -31 -45 33 -60 34 -60 0 -829 c0 -821 0 -830
-21 -873 -29 -59 -92 -111 -161 -131 -32 -9 -58 -21 -58 -25 0 -18 40 -84 69
-113 39 -39 84 -61 152 -74 118 -22 225 32 277 142 l29 59 17 -45 c19 -51 88
-119 144 -143 47 -21 164 -21 213 0 65 27 134 101 153 163 6 19 2 23 -31 29
-76 14 -148 68 -184 138 -19 37 -20 64 -20 878 l0 841 30 52 30 52 -30 45 -29
45 -3 556 -2 555 94 7 c85 6 98 5 140 -16 27 -14 58 -40 75 -65 41 -59 40
-126 -3 -258 -29 -90 -32 -110 -29 -195 2 -76 8 -106 29 -150 37 -79 106 -143
202 -189 78 -38 240 -81 253 -68 3 3 1 52 -5 109 -7 57 -38 358 -71 671 -32
312 -62 572 -65 577 -6 9 -1626 12 -1767 3z"/>
<path d="M13778 9743 c27 -32 59 -67 71 -77 21 -19 21 -20 21 -698 l0 -679
-25 -49 c-13 -27 -29 -51 -34 -54 -5 -3 6 -34 25 -68 l34 -63 0 -835 c0 -792
-1 -837 -19 -875 -33 -72 -110 -133 -188 -150 -38 -8 -37 -6 -19 -49 21 -51
76 -107 131 -132 60 -29 165 -32 223 -9 53 22 111 82 137 140 l22 50 23 -53
c42 -98 129 -151 248 -152 85 0 124 14 182 66 38 34 80 99 80 123 0 5 -21 14
-47 21 -62 15 -120 55 -158 109 l-30 43 -3 1229 -2 1229 62 -45 c34 -25 120
-81 192 -123 216 -127 311 -242 336 -407 22 -140 -20 -309 -115 -464 l-44 -72
25 -9 c14 -6 54 -10 88 -10 72 0 152 34 224 95 l42 37 0 -724 0 -724 -30 -47
c-35 -56 -93 -100 -155 -117 -52 -14 -55 -27 -24 -80 55 -91 125 -130 235
-130 59 0 81 5 124 28 59 30 105 81 124 137 l13 36 27 -55 c50 -102 142 -151
270 -144 60 3 82 9 122 33 51 32 99 92 109 137 6 23 3 27 -27 33 -78 17 -152
74 -188 146 -19 37 -20 63 -20 872 l0 834 34 63 33 63 -31 50 -31 50 -3 764
-2 763 -367 0 -368 0 78 -78 77 -77 0 -459 0 -458 -55 49 c-30 27 -87 69 -126
94 -328 205 -486 373 -565 600 -27 78 -64 249 -64 299 l0 30 -361 0 -361 0 50
-57z"/>
<path d="M12638 9717 l72 -73 -2 -685 -3 -685 -32 -49 -31 -48 34 -64 34 -65
0 -824 c0 -819 0 -825 -21 -867 -38 -75 -108 -131 -191 -151 -36 -8 -36 -32 1
-82 59 -83 140 -124 240 -124 105 1 213 86 241 190 6 24 8 23 27 -21 45 -102
140 -169 239 -169 112 0 203 52 249 143 l26 52 -39 11 c-85 25 -146 74 -182
145 -19 37 -20 63 -20 877 l0 838 34 53 33 53 -33 56 -34 56 0 753 0 753 -357
0 -357 0 72 -73z"/>
<path d="M4252 8078 c-11 -26 -41 -76 -66 -112 -25 -35 -58 -90 -73 -122 -25
-52 -28 -71 -28 -159 0 -106 14 -150 77 -245 15 -23 1 -12 -43 33 -130 131
-265 154 -489 82 -41 -13 -95 -27 -119 -30 l-44 -7 35 -32 c20 -17 61 -63 92
-103 65 -83 119 -130 196 -169 45 -24 68 -28 130 -29 41 0 91 4 110 8 31 8 28
4 -25 -28 -77 -47 -107 -75 -138 -134 -40 -72 -57 -153 -57 -266 0 -55 -5
-118 -10 -140 -5 -22 -8 -41 -6 -42 2 -2 23 8 47 22 24 13 79 36 122 51 42 14
104 44 136 65 104 69 153 141 170 249 11 69 21 89 21 43 0 -16 7 -53 16 -83
39 -131 131 -213 314 -280 47 -17 100 -40 119 -51 18 -11 35 -18 37 -16 2 2
-1 19 -6 38 -6 18 -10 78 -10 132 0 224 -61 340 -225 426 l-40 21 50 -7 c179
-26 299 36 447 229 32 43 67 82 78 88 33 18 23 28 -32 32 -29 3 -95 17 -146
32 -81 25 -106 28 -185 24 -121 -6 -170 -28 -253 -114 l-64 -66 42 82 c41 78
43 86 43 168 0 111 -16 155 -110 297 -39 61 -76 121 -82 135 -10 24 -10 24
-31 -22z m129 -704 c97 -93 33 -244 -103 -244 -108 0 -176 123 -118 217 45 75
157 88 221 27z"/>
<path d="M4229 7321 c-17 -18 -29 -40 -29 -56 0 -16 12 -38 29 -56 18 -17 40
-29 56 -29 32 0 85 49 85 79 0 50 -41 91 -91 91 -11 0 -34 -13 -50 -29z"/>
<path d="M21425 8093 c-3 -16 -33 -68 -65 -118 -83 -126 -102 -175 -108 -271
-5 -95 9 -147 63 -237 l36 -59 -63 64 c-35 35 -84 74 -110 86 -100 49 -228 48
-374 -2 -39 -13 -94 -27 -123 -31 l-52 -7 35 -26 c19 -15 62 -61 94 -103 113
-144 207 -203 327 -203 39 -1 88 3 110 7 l40 8 -55 -31 c-140 -79 -200 -198
-200 -398 0 -59 -5 -125 -10 -147 -5 -22 -7 -41 -5 -43 2 -2 17 5 32 16 16 11
71 35 122 53 207 72 302 176 327 359 l8 55 8 -66 c20 -167 122 -276 330 -350
50 -18 106 -43 126 -56 29 -20 33 -21 27 -6 -4 10 -11 83 -16 163 -4 80 -13
163 -19 185 -32 108 -87 176 -187 233 -52 30 -54 33 -23 26 19 -4 65 -7 102
-6 124 0 232 70 348 222 33 43 71 87 85 98 34 27 32 32 -12 32 -20 0 -85 14
-145 31 -96 27 -122 31 -202 27 -117 -5 -182 -34 -255 -114 -28 -31 -51 -53
-51 -50 0 3 13 31 29 63 82 163 65 276 -75 484 -41 61 -74 117 -74 125 0 25
-18 15 -25 -13z m104 -702 c46 -32 65 -68 65 -120 0 -84 -58 -141 -144 -141
-123 0 -191 143 -111 232 50 55 135 68 190 29z"/>
<path d="M21415 7338 c-31 -17 -45 -39 -45 -72 1 -48 41 -86 90 -86 30 0 80
53 80 85 0 33 -50 85 -82 85 -13 0 -32 -6 -43 -12z"/>
<path d="M18156 7078 c-13 -19 -16 -58 -16 -228 0 -170 3 -209 16 -228 18 -27
55 -29 77 -4 15 16 17 47 17 228 0 228 -6 254 -55 254 -13 0 -31 -10 -39 -22z"/>
<path d="M5554 6386 c-32 -14 -555 -397 -606 -444 -51 -47 -46 -103 14 -174
l23 -27 148 109 147 110 97 -61 c142 -91 195 -113 273 -113 74 0 125 21 177
76 40 41 53 76 53 138 0 75 -32 144 -120 263 -99 132 -135 154 -206 123z m185
-183 c49 -70 52 -105 14 -155 -67 -87 -151 -133 -243 -133 -57 0 -73 5 -123
35 -31 19 -56 38 -55 42 5 13 341 266 355 267 6 1 30 -25 52 -56z"/>
<path d="M20185 6371 c-53 -24 -140 -122 -160 -179 -42 -126 9 -263 120 -318
81 -39 148 -36 348 15 221 57 276 53 328 -25 37 -57 12 -147 -51 -179 -41 -21
-61 -19 -126 16 -35 18 -66 28 -79 24 -19 -5 -85 -85 -85 -103 0 -5 27 -23 59
-41 108 -57 197 -35 284 71 58 71 81 132 81 214 -1 122 -62 210 -165 234 -61
15 -111 8 -312 -41 -174 -43 -222 -47 -273 -23 -78 37 -104 107 -64 171 43 71
84 76 173 22 26 -16 54 -29 61 -29 16 0 96 88 96 105 0 24 -126 85 -174 85
-11 0 -39 -9 -61 -19z"/>
<path d="M8520 5811 c-5 -11 -10 -53 -10 -94 0 -79 15 -107 56 -107 36 0 44
20 44 110 0 54 -5 91 -12 98 -19 19 -66 15 -78 -7z"/>
<path d="M9120 5811 c-6 -12 -10 -118 -10 -275 0 -243 1 -257 20 -276 11 -11
27 -20 35 -20 8 0 24 9 35 20 19 19 20 33 20 276 0 157 -4 263 -10 275 -7 13
-21 19 -45 19 -24 0 -38 -6 -45 -19z"/>
<path d="M9732 5818 c-17 -17 -17 -849 0 -866 19 -19 66 -15 78 7 6 13 10 165
10 426 0 261 -4 413 -10 426 -12 22 -59 26 -78 7z"/>
<path d="M10332 5818 c-9 -9 -12 -145 -12 -550 l0 -538 25 -16 c23 -15 27 -15
50 0 l25 16 0 538 c0 405 -3 541 -12 550 -7 7 -24 12 -38 12 -14 0 -31 -5 -38
-12z"/>
<path d="M10930 5811 c-6 -13 -10 -231 -10 -640 0 -559 2 -621 16 -636 23 -23
66 -15 81 15 10 19 13 164 13 630 0 532 -2 608 -16 628 -20 28 -69 30 -84 3z"/>
<path d="M11530 5811 c-6 -13 -10 -248 -10 -693 0 -733 -1 -718 55 -718 56 0
55 -15 55 718 0 445 -4 680 -10 693 -7 13 -21 19 -45 19 -24 0 -38 -6 -45 -19z"/>
<path d="M12142 5818 c-17 -17 -17 -1469 0 -1486 19 -19 66 -15 78 7 7 13 10
261 10 736 0 475 -3 723 -10 736 -12 22 -59 26 -78 7z"/>
<path d="M12732 5818 c-9 -9 -12 -190 -12 -755 l0 -743 25 -16 c30 -20 63 -10
76 23 5 14 9 317 9 741 0 633 -2 720 -16 740 -17 24 -62 30 -82 10z"/>
<path d="M13330 5811 c-7 -13 -10 -262 -10 -739 0 -684 1 -720 18 -735 26 -23
58 -21 76 5 14 20 16 106 16 736 0 473 -3 720 -10 733 -7 13 -21 19 -45 19
-24 0 -38 -6 -45 -19z"/>
<path d="M13942 5818 c-17 -17 -17 -1399 0 -1416 18 -18 53 -15 71 6 16 17 17
80 17 701 0 451 -4 689 -10 702 -12 22 -59 26 -78 7z"/>
<path d="M14542 5818 c-9 -9 -12 -166 -12 -644 0 -562 2 -634 16 -648 8 -9 24
-16 34 -16 10 0 26 7 34 16 14 14 16 86 16 648 0 478 -3 635 -12 644 -7 7 -24
12 -38 12 -14 0 -31 -5 -38 -12z"/>
<path d="M15142 5818 c-9 -9 -12 -146 -12 -554 0 -591 -2 -574 55 -574 55 0
55 -1 55 570 0 459 -2 528 -16 548 -17 24 -62 30 -82 10z"/>
<path d="M15740 5811 c-6 -13 -10 -167 -10 -433 0 -449 1 -458 55 -458 54 0
55 9 55 452 0 240 -4 417 -10 432 -8 21 -16 26 -44 26 -25 0 -38 -6 -46 -19z"/>
<path d="M16352 5818 c-9 -9 -12 -89 -12 -298 0 -209 3 -289 12 -298 18 -18
53 -15 71 6 15 16 17 52 17 291 0 169 -4 280 -10 292 -12 22 -59 26 -78 7z"/>
<path d="M16952 5818 c-16 -16 -16 -210 0 -226 7 -7 24 -12 38 -12 44 0 50 16
50 125 0 109 -6 125 -50 125 -14 0 -31 -5 -38 -12z"/>
<path d="M19603 5649 c-51 -25 -138 -116 -160 -166 -22 -52 -22 -147 0 -205
20 -52 78 -110 133 -133 50 -21 173 -19 319 5 190 31 238 26 292 -32 53 -57
48 -126 -15 -178 -51 -42 -94 -41 -161 5 -28 19 -58 35 -67 35 -9 0 -36 -21
-60 -47 l-43 -48 22 -24 c30 -33 115 -71 157 -71 87 1 211 102 249 205 51 135
9 280 -93 326 -74 32 -115 33 -328 4 -233 -32 -264 -29 -323 31 -29 29 -35 42
-35 79 0 37 6 50 35 80 48 47 85 47 154 0 67 -46 91 -45 135 7 20 23 36 45 36
49 0 13 -64 61 -105 80 -52 24 -91 24 -142 -2z"/>
<path d="M6140 5623 c-14 -9 -52 -42 -85 -72 -342 -315 -452 -419 -465 -436
-38 -51 -29 -105 28 -159 l31 -29 51 47 c29 25 99 89 156 142 103 95 104 96
134 84 16 -7 30 -14 30 -16 0 -2 -41 -76 -91 -164 -56 -99 -93 -176 -96 -200
-7 -48 16 -111 56 -158 l28 -33 90 158 c50 87 109 193 133 236 23 42 45 77 48
77 4 0 37 -7 73 -16 87 -21 138 -8 195 50 105 104 71 224 -118 419 -81 84 -86
87 -129 87 -25 0 -55 -7 -69 -17z m245 -208 c21 -48 7 -84 -55 -146 -56 -56
-102 -79 -160 -79 -34 1 -153 43 -157 56 -2 6 60 71 138 143 l142 132 40 -38
c22 -21 45 -52 52 -68z"/>
<path d="M6601 4693 c-189 -207 -284 -319 -290 -340 -13 -47 3 -93 45 -133 31
-31 37 -33 47 -19 7 8 127 140 267 293 140 152 266 297 279 322 21 39 23 49
13 82 -6 21 -27 52 -46 71 l-34 33 -281 -309z"/>
<path d="M18997 4986 c-45 -16 -121 -73 -203 -152 -104 -101 -97 -137 58 -308
57 -61 167 -182 246 -268 196 -215 213 -219 362 -81 140 128 173 176 172 250
-1 47 -28 107 -61 137 -22 20 -22 20 -66 -24 -51 -50 -55 -72 -21 -119 32 -42
41 -83 25 -113 -15 -31 -90 -108 -104 -107 -13 0 -249 264 -252 281 -1 7 29
40 67 73 68 59 69 60 50 79 -18 19 -20 18 -87 -43 -37 -33 -72 -61 -78 -60
-10 0 -247 261 -253 278 -2 5 18 25 44 45 62 48 98 48 154 1 23 -19 52 -35 64
-35 13 0 40 19 66 45 l43 44 -34 32 c-61 57 -118 71 -192 45z"/>
<path d="M7058 4312 c-133 -174 -251 -334 -261 -355 -26 -51 -17 -94 32 -141
22 -21 44 -37 49 -35 6 2 48 54 94 114 245 322 310 406 314 402 2 -2 -33 -136
-77 -298 -45 -162 -84 -312 -86 -333 -6 -48 15 -93 58 -125 l30 -22 22 27 c12
16 126 165 254 331 234 307 254 340 238 395 -7 23 -73 98 -86 98 -4 0 -93
-112 -199 -250 -105 -137 -197 -253 -202 -256 -13 -8 -17 -24 82 333 44 158
80 293 80 301 0 28 -33 82 -65 106 l-33 26 -244 -318z"/>
<path d="M18284 4414 c-21 -15 -40 -28 -42 -29 -2 -2 78 -114 177 -249 194
-264 222 -304 206 -294 -5 3 -125 77 -265 163 -140 87 -266 164 -280 171 -47
26 -102 17 -157 -26 l-23 -18 88 -118 c48 -66 159 -217 246 -337 95 -130 171
-224 187 -233 41 -21 87 -17 136 11 23 14 43 28 43 30 0 3 -85 121 -188 263
-225 308 -212 288 -176 269 31 -17 359 -219 464 -287 86 -56 133 -62 195 -26
29 17 43 32 38 39 -7 12 -80 113 -341 470 -85 115 -157 204 -173 213 -43 22
-91 17 -135 -12z"/>
<path d="M8066 3985 c-43 -15 -82 -49 -109 -94 l-17 -29 50 -31 c73 -45 85
-43 135 24 36 49 43 55 76 55 62 0 57 -12 -151 -356 -110 -181 -203 -344 -206
-363 -9 -46 16 -94 66 -127 22 -15 42 -25 44 -23 2 2 94 153 203 334 255 422
252 417 265 413 7 -3 21 -16 31 -31 l20 -26 -27 -54 c-39 -80 -36 -99 24 -136
28 -17 54 -31 58 -31 11 0 43 66 53 110 22 91 -29 152 -225 269 -177 105 -221
120 -290 96z"/>
<path d="M17473 3866 l-53 -25 186 -308 c243 -401 252 -414 296 -436 31 -15
44 -16 76 -7 22 5 50 18 62 28 l23 19 -214 353 c-118 194 -225 361 -239 371
-42 31 -79 32 -137 5z"/>
<path d="M16920 3551 c-87 -28 -256 -117 -280 -148 -40 -50 -27 -88 149 -445
89 -180 171 -337 183 -348 28 -26 87 -26 138 0 22 11 40 22 40 25 0 2 -34 75
-75 161 -41 86 -75 161 -75 166 0 5 41 55 90 110 147 166 178 254 126 363 -56
120 -160 160 -296 116z m35 -77 c39 -18 78 -70 111 -151 30 -75 30 -126 -1
-189 -23 -47 -90 -123 -99 -113 -7 7 -185 370 -191 390 -5 16 5 24 57 49 73
35 79 35 123 14z"/>
<path d="M9511 3268 c-5 -13 -31 -79 -57 -148 -69 -179 -64 -231 34 -332 l45
-47 -56 -148 c-65 -169 -69 -207 -31 -253 28 -33 93 -65 105 -53 7 7 77 181
141 351 l19 52 53 0 c66 0 147 39 175 83 26 43 80 183 87 227 8 51 -22 99 -81
128 -39 20 -49 22 -56 11 -5 -8 -34 -84 -65 -169 -66 -179 -96 -220 -159 -220
-29 0 -45 8 -72 35 -33 33 -35 39 -30 79 4 24 24 90 47 147 49 127 52 176 13
219 -16 16 -45 37 -66 45 -36 15 -38 15 -46 -7z"/>
<path d="M15950 3144 c-187 -63 -220 -88 -220 -168 0 -31 185 -565 242 -699
21 -48 57 -77 96 -77 21 0 112 30 112 37 0 2 -28 81 -62 175 l-62 170 29 25
c125 105 206 188 229 235 44 87 32 197 -27 265 -73 83 -170 94 -337 37z m120
-49 c34 -18 64 -64 90 -141 24 -69 25 -131 5 -182 -16 -38 -101 -132 -120
-132 -6 0 -19 24 -29 53 -10 28 -42 117 -71 197 -30 80 -55 151 -57 159 -2 9
17 22 52 37 66 27 92 29 130 9z"/>
<path d="M10476 2925 c-57 -22 -102 -60 -130 -108 -13 -23 -52 -145 -87 -272
-72 -264 -80 -339 -42 -410 70 -132 258 -198 399 -140 44 18 102 72 124 115
34 67 140 494 140 563 -1 106 -59 192 -164 238 -63 28 -185 35 -240 14z m203
-60 c34 -17 41 -32 41 -92 0 -52 -143 -606 -173 -671 -35 -75 -115 -93 -168
-36 -38 40 -31 98 45 379 85 318 102 369 133 405 28 34 75 40 122 15z"/>
<path d="M15030 2891 c-91 -29 -177 -107 -198 -179 -21 -70 -13 -127 62 -428
80 -316 87 -333 151 -354 28 -9 107 -2 120 12 2 2 -16 82 -40 178 -25 96 -45
183 -45 192 0 18 152 153 172 153 6 0 31 -84 58 -193 52 -213 65 -238 132
-249 57 -9 108 4 108 27 0 11 -36 168 -81 349 -91 373 -107 413 -193 466 -44
27 -59 30 -135 32 -47 1 -97 -1 -111 -6z m114 -69 c10 -9 24 -29 32 -44 16
-31 64 -204 64 -230 0 -22 -168 -164 -179 -152 -11 11 -68 253 -76 320 -7 61
8 93 55 117 38 19 74 15 104 -11z"/>
<path d="M11306 2749 c-13 -36 -106 -673 -106 -721 0 -149 131 -258 309 -258
107 1 196 54 243 143 19 39 108 568 108 650 0 74 -39 116 -122 131 -33 6 -38
4 -43 -16 -2 -13 -29 -189 -60 -391 -31 -213 -61 -382 -71 -403 -47 -98 -179
-72 -191 38 -3 25 17 181 47 377 29 189 48 345 45 362 -7 32 -67 89 -93 89 -9
0 -27 3 -39 6 -15 4 -24 1 -27 -7z"/>
<path d="M14230 2683 c0 -16 9 -95 20 -177 11 -81 20 -156 20 -166 0 -17 -165
-140 -188 -140 -5 0 -19 78 -32 173 -26 206 -32 229 -71 262 -25 20 -41 25
-85 25 -38 0 -56 -4 -60 -14 -9 -23 103 -812 120 -844 20 -39 78 -66 128 -59
22 3 42 8 46 12 5 5 -33 317 -44 357 -6 21 184 157 195 139 4 -6 17 -88 29
-182 13 -94 29 -186 37 -204 18 -44 60 -65 130 -65 l57 0 -6 38 c-4 20 -29
207 -56 414 -27 208 -54 386 -60 397 -22 42 -60 61 -121 61 -58 0 -59 -1 -59
-27z"/>
<path d="M12298 2614 c-53 -28 -57 -48 -73 -401 -21 -459 -21 -448 14 -484 26
-25 37 -29 89 -29 l59 0 6 122 c4 66 7 156 7 198 0 80 9 103 47 114 25 8 22
14 78 -194 42 -155 62 -196 111 -229 41 -29 144 -43 144 -20 0 12 -109 415
-130 481 -10 30 -9 31 63 72 69 40 102 93 102 171 0 149 -121 215 -395 214
-65 0 -104 -5 -122 -15z m275 -56 c15 -6 35 -24 43 -40 18 -35 20 -150 4 -194
-17 -45 -69 -94 -128 -120 -89 -40 -84 -50 -77 164 4 103 8 193 11 200 5 15
98 9 147 -10z"/>
<path d="M9966 22961 l-69 -69 17 -69 c9 -38 20 -74 25 -81 5 -8 29 10 74 58
l67 71 -19 75 c-11 42 -21 77 -23 80 -2 2 -35 -28 -72 -65z"/>
<path d="M15435 23002 l-80 -27 -17 -75 c-9 -41 -16 -76 -14 -78 3 -2 44 9 93
23 l89 27 12 57 c7 31 15 66 18 79 8 28 0 28 -101 -6z"/>
<path d="M15797 22915 c-44 -13 -82 -27 -87 -31 -9 -11 -42 -145 -36 -151 7
-7 175 47 183 60 10 15 43 118 43 135 0 16 -9 15 -103 -13z"/>
<path d="M9611 22864 c-34 -37 -61 -71 -61 -76 0 -22 43 -148 50 -148 4 0 29
26 56 58 27 31 52 59 56 60 5 2 8 12 8 23 0 32 -32 149 -40 149 -5 0 -36 -30
-69 -66z"/>
<path d="M16235 22835 c-5 -2 -47 -13 -91 -25 l-81 -21 -22 -76 c-12 -41 -20
-77 -18 -80 6 -6 169 38 182 49 11 10 55 158 46 157 -3 0 -10 -2 -16 -4z"/>
<path d="M9275 22773 c-27 -32 -55 -66 -64 -76 -13 -15 -12 -25 9 -92 13 -41
26 -75 29 -75 6 0 73 75 113 126 17 21 16 25 -7 94 -14 40 -27 75 -29 77 -2 2
-25 -22 -51 -54z"/>
<path d="M16511 22699 c-47 -10 -88 -22 -93 -27 -4 -4 -19 -40 -32 -80 l-25
-72 22 5 c12 3 56 14 97 23 l75 17 27 78 c15 42 24 77 20 76 -4 0 -45 -9 -91
-20z"/>
<path d="M8939 22677 c-14 -18 -40 -51 -58 -74 l-33 -41 28 -79 c15 -43 28
-79 29 -81 1 -1 30 34 64 79 l63 80 -28 75 c-14 40 -29 74 -33 73 -3 0 -18
-15 -32 -32z"/>
<path d="M16856 22576 l-99 -21 -28 -78 -29 -78 43 6 c23 4 67 12 97 19 l55
12 33 78 c18 43 32 79 30 80 -2 2 -47 -7 -102 -18z"/>
<path d="M8566 22509 l-57 -80 26 -69 c15 -39 30 -72 35 -75 5 -3 33 29 63 70
l55 75 -27 75 c-15 41 -29 76 -32 79 -3 3 -31 -31 -63 -75z"/>
<path d="M8226 22367 l-57 -84 32 -71 c18 -40 35 -72 39 -72 3 0 30 36 59 79
l52 79 -31 73 c-17 40 -32 75 -34 76 -1 2 -28 -35 -60 -80z"/>
<path d="M17210 22440 c-19 -4 -51 -11 -72 -14 -34 -6 -38 -11 -66 -79 -17
-39 -29 -73 -27 -75 1 -2 46 5 100 14 80 15 98 21 105 38 4 12 17 45 29 74
l21 52 -28 -1 c-15 -1 -43 -5 -62 -9z"/>
<path d="M17545 22295 c-5 -2 -32 -6 -58 -10 -37 -5 -50 -12 -57 -28 -4 -12
-19 -47 -33 -78 l-25 -55 96 13 c52 7 96 14 98 16 8 10 64 129 64 137 0 9 -62
13 -85 5z"/>
<path d="M7889 22213 c-29 -42 -52 -82 -52 -88 1 -5 17 -40 36 -77 l35 -67 54
82 55 82 -33 73 c-19 39 -36 72 -38 72 -3 0 -29 -35 -57 -77z"/>
<path d="M17817 22133 c-38 -3 -50 -9 -56 -26 -7 -18 -43 -98 -57 -127 -1 -3
41 -1 94 5 l96 10 37 65 c21 36 38 68 38 73 1 7 -59 7 -152 0z"/>
<path d="M7579 22087 c-15 -23 -36 -60 -47 -82 l-20 -40 36 -77 36 -78 51 88
52 87 -36 73 c-19 39 -38 72 -41 72 -3 0 -17 -19 -31 -43z"/>
<path d="M18152 21961 l-53 -6 -41 -74 -41 -74 54 6 c30 4 75 7 101 7 l47 0
41 69 c22 38 40 72 40 75 0 7 -72 5 -148 -3z"/>
<path d="M7236 21879 c-25 -45 -46 -86 -46 -91 0 -12 73 -138 80 -138 3 0 25
38 50 83 l44 84 -34 67 c-19 38 -38 70 -41 72 -4 2 -28 -33 -53 -77z"/>
<path d="M18391 21724 c-22 -36 -41 -69 -41 -75 0 -5 42 -9 94 -9 l94 0 41 71
c23 39 41 73 41 75 0 2 -42 4 -94 4 l-94 0 -41 -66z"/>
<path d="M6916 21694 c-25 -47 -46 -88 -46 -90 0 -16 84 -134 91 -127 4 4 26
43 49 85 l41 76 -44 72 -45 71 -46 -87z"/>
<path d="M18701 21534 c-23 -37 -40 -68 -39 -70 3 -2 153 -6 185 -5 7 1 22 18
33 39 12 20 30 52 41 70 l21 32 -100 0 -100 0 -41 -66z"/>
<path d="M6601 21500 l-43 -90 39 -62 c22 -34 44 -63 49 -65 9 -3 85 142 84
160 0 8 -80 147 -84 147 -2 0 -22 -40 -45 -90z"/>
<path d="M19023 21362 c-12 -20 -32 -52 -44 -70 l-21 -33 102 3 103 3 43 62
c51 73 50 73 -74 73 l-87 0 -22 -38z"/>
<path d="M6293 21298 l-40 -93 45 -67 c25 -38 47 -68 49 -68 2 0 13 20 23 45
11 25 29 65 39 90 l20 44 -46 68 c-25 37 -46 69 -47 70 -2 2 -21 -39 -43 -89z"/>
<path d="M19307 21130 c-31 -42 -43 -67 -35 -71 6 -4 51 -8 99 -8 l89 -1 45
62 c24 34 43 64 40 66 -2 3 -47 8 -98 11 l-94 6 -46 -65z"/>
<path d="M6021 21152 c-13 -24 -61 -152 -61 -162 0 -4 21 -37 48 -73 l47 -65
38 95 37 94 -46 65 c-25 35 -47 64 -50 64 -2 0 -8 -8 -13 -18z"/>
<path d="M19600 20913 l-52 -68 59 -6 c32 -4 78 -7 103 -8 44 0 46 1 92 62 55
72 58 69 -74 81 l-76 8 -52 -69z"/>
<path d="M5701 20862 c-17 -48 -31 -91 -31 -95 0 -9 92 -127 99 -127 3 0 20
41 37 91 l31 90 -49 65 c-27 35 -50 64 -52 64 -2 0 -17 -39 -35 -88z"/>
<path d="M19891 20694 c-29 -36 -51 -67 -49 -68 1 -2 46 -9 98 -15 l95 -12 23
28 c85 103 84 101 65 107 -10 2 -47 7 -83 11 -36 4 -72 8 -81 11 -10 3 -34
-19 -68 -62z"/>
<path d="M5417 20638 c-15 -46 -27 -91 -27 -99 0 -8 23 -43 52 -77 l52 -64 28
94 c15 51 25 100 23 108 -3 8 -27 39 -53 68 l-47 54 -28 -84z"/>
<path d="M20170 20459 c-29 -33 -51 -62 -49 -63 2 -2 47 -10 99 -18 l95 -14
52 60 c29 33 50 62 48 65 -7 6 -135 30 -166 31 -20 0 -39 -15 -79 -61z"/>
<path d="M5136 20385 l-28 -97 24 -26 c56 -64 88 -96 91 -91 2 2 14 45 28 95
l25 91 -56 63 -56 62 -28 -97z"/>
<path d="M20445 20219 l-60 -63 100 -19 100 -18 52 57 c29 32 53 61 53 64 0 4
-29 12 -65 18 -36 7 -77 15 -93 18 -24 5 -35 -3 -87 -57z"/>
<path d="M4882 20200 c-6 -19 -18 -64 -27 -99 l-16 -64 57 -58 c32 -32 59 -57
61 -55 6 6 43 151 43 171 0 11 -24 47 -54 80 l-53 59 -11 -34z"/>
<path d="M20711 19970 c-35 -40 -48 -62 -39 -65 7 -2 50 -13 95 -23 l81 -19
58 58 c32 32 56 60 53 63 -4 4 -175 46 -188 46 -5 0 -31 -27 -60 -60z"/>
<path d="M4602 19874 l-22 -95 57 -59 c31 -33 59 -57 63 -55 4 3 15 47 25 100
l18 95 -49 46 c-27 25 -54 50 -60 55 -7 6 -17 -21 -32 -87z"/>
<path d="M20965 19710 c-33 -33 -55 -60 -50 -60 6 0 49 -11 97 -24 l87 -24 61
55 c45 41 58 58 48 64 -11 6 -168 49 -180 49 -2 0 -30 -27 -63 -60z"/>
<path d="M4347 19605 l-17 -96 56 -52 c31 -29 60 -53 64 -55 4 -1 14 41 23 95
l17 98 -57 52 c-32 29 -60 53 -63 53 -3 0 -13 -43 -23 -95z"/>
<path d="M21215 19446 c-44 -40 -56 -56 -45 -60 8 -3 51 -17 94 -31 l80 -24
45 38 c93 78 93 74 -9 104 -49 15 -93 27 -97 27 -4 0 -35 -25 -68 -54z"/>
<path d="M4117 19416 c-3 -8 -11 -51 -18 -97 l-12 -83 59 -53 c32 -29 60 -50
63 -47 6 5 7 13 22 112 12 83 13 80 -61 142 -35 30 -49 36 -53 26z"/>
<path d="M21464 19178 c-33 -26 -60 -52 -62 -56 -2 -8 153 -62 179 -62 8 0 40
24 73 53 l58 52 -95 31 -95 31 -58 -49z"/>
<path d="M3876 19133 c-2 -10 -7 -47 -11 -83 -4 -36 -9 -72 -11 -81 -3 -11 16
-33 60 -67 74 -59 71 -62 81 73 l6 80 -60 48 c-50 40 -60 45 -65 30z"/>
<path d="M21690 18893 c-30 -25 -56 -48 -58 -52 -1 -4 38 -21 88 -39 l90 -33
60 46 c32 25 61 49 64 54 4 7 -168 73 -184 71 -3 -1 -30 -22 -60 -47z"/>
<path d="M3635 18765 c-6 -70 -4 -99 5 -110 18 -22 110 -88 115 -83 7 7 25
180 19 189 -5 9 -122 99 -128 99 -2 0 -7 -43 -11 -95z"/>
<path d="M21912 18603 c-73 -56 -72 -56 43 -98 l73 -27 60 41 c34 22 63 45 66
50 5 8 -152 81 -173 81 -4 0 -35 -21 -69 -47z"/>
<path d="M3415 18470 c-4 -56 -6 -102 -4 -104 2 -1 33 -24 69 -50 l65 -48 8
97 c10 110 14 102 -79 168 l-52 37 -7 -100z"/>
<path d="M22123 18307 c-34 -23 -62 -44 -63 -48 0 -3 41 -22 90 -42 l91 -37
69 47 c39 25 69 47 68 48 -6 6 -179 75 -186 75 -4 0 -35 -19 -69 -43z"/>
<path d="M3208 18160 l-3 -100 67 -45 c37 -25 70 -45 73 -45 3 0 5 45 5 99 l0
100 -64 45 c-35 26 -66 46 -69 46 -3 0 -7 -45 -9 -100z"/>
<path d="M22328 18007 c-66 -41 -81 -57 -55 -57 6 0 43 -16 81 -35 39 -19 75
-35 82 -35 7 0 43 19 80 42 l68 42 -90 43 c-49 23 -91 43 -94 42 -3 0 -35 -19
-72 -42z"/>
<path d="M3010 17850 l0 -100 38 -23 c20 -13 54 -33 75 -46 l37 -23 -1 101 -2
100 -51 34 c-28 19 -61 39 -73 46 l-23 12 0 -101z"/>
<path d="M22518 17697 l-67 -41 88 -48 89 -48 71 43 c63 37 69 43 54 55 -25
18 -151 82 -160 81 -4 0 -38 -19 -75 -42z"/>
<path d="M2822 17534 l3 -98 74 -44 74 -43 -7 62 c-3 34 -6 80 -6 103 0 40 -2
42 -63 76 -34 19 -66 37 -70 38 -4 2 -6 -40 -5 -94z"/>
<path d="M22703 17382 c-35 -20 -63 -39 -63 -42 0 -3 39 -26 88 -51 l87 -46
63 37 c35 21 65 40 68 43 7 6 -154 97 -170 97 -6 -1 -39 -17 -73 -38z"/>
<path d="M2637 17233 c6 -120 5 -117 88 -161 l74 -39 -5 61 c-13 154 -7 142
-85 181 -39 19 -71 35 -73 35 -2 0 -1 -35 1 -77z"/>
<path d="M22885 17064 c-38 -20 -71 -38 -73 -39 -2 -2 35 -26 82 -54 l85 -52
77 39 76 38 -87 52 c-47 29 -87 52 -88 52 -1 0 -33 -16 -72 -36z"/>
<path d="M2470 16948 c0 -18 3 -63 6 -99 l7 -66 73 -36 c41 -21 76 -37 77 -37
2 0 0 33 -4 73 -4 39 -8 84 -8 99 -1 24 -10 33 -71 63 -38 19 -72 35 -75 35
-3 0 -5 -15 -5 -32z"/>
<path d="M23038 16738 c-60 -27 -86 -48 -60 -48 5 0 40 -20 78 -45 38 -24 76
-45 84 -45 21 0 140 57 140 68 0 10 -151 102 -165 101 -6 0 -40 -14 -77 -31z"/>
<path d="M2313 16558 c5 -51 14 -98 20 -105 13 -12 137 -66 142 -61 5 4 -21
187 -26 191 -9 5 -140 67 -142 67 -2 0 1 -42 6 -92z"/>
<path d="M23193 16407 c-35 -17 -63 -34 -63 -37 0 -3 35 -29 78 -58 l78 -53
74 32 c41 17 76 32 77 33 5 5 -159 116 -170 115 -7 0 -40 -14 -74 -32z"/>
<path d="M2153 16294 c3 -10 11 -55 18 -99 l12 -81 78 -31 c44 -17 79 -27 79
-21 0 6 -7 50 -16 98 l-16 87 -67 28 c-36 15 -72 30 -80 33 -9 3 -12 -1 -8
-14z"/>
<path d="M23345 16074 c-33 -13 -63 -28 -67 -32 -7 -7 86 -84 138 -115 12 -7
137 35 157 53 8 7 -143 120 -159 120 -5 -1 -36 -12 -69 -26z"/>
<path d="M2020 15957 c0 -7 5 -40 11 -73 6 -32 12 -69 14 -82 3 -29 -2 -26 88
-60 75 -30 77 -30 72 -9 -3 12 -12 56 -20 97 -9 41 -19 78 -23 81 -6 7 -131
59 -139 59 -2 0 -3 -6 -3 -13z"/>
<path d="M23472 15733 c-40 -14 -72 -29 -70 -33 2 -4 36 -34 76 -65 l73 -57
80 29 80 29 -79 62 c-44 34 -82 62 -84 61 -2 0 -36 -12 -76 -26z"/>
<path d="M1890 15606 c0 -9 9 -55 21 -101 l21 -84 68 -20 c80 -25 94 -26 87
-7 -3 8 -13 50 -23 94 l-17 79 -66 23 c-36 12 -71 25 -78 27 -7 3 -13 -2 -13
-11z"/>
<path d="M23583 15387 c-35 -11 -63 -24 -63 -27 0 -4 33 -35 74 -68 l75 -61
77 26 78 26 -70 63 c-38 36 -78 63 -89 63 -11 -1 -48 -10 -82 -22z"/>
<path d="M1775 15247 c3 -12 14 -55 23 -96 l17 -75 79 -23 c43 -13 80 -23 81
-21 2 2 -8 45 -22 95 l-27 93 -65 21 c-36 11 -72 22 -79 25 -8 2 -10 -4 -7
-19z"/>
<path d="M23688 15037 l-67 -22 74 -67 74 -66 78 20 c43 11 80 22 82 24 3 2
-15 21 -39 42 -25 20 -57 49 -72 65 -34 32 -42 32 -130 4z"/>
<path d="M1665 14908 c2 -7 16 -52 30 -100 l26 -87 52 -15 c107 -31 107 -31
102 -4 -9 46 -45 162 -52 168 -7 5 -56 21 -145 46 -12 4 -16 1 -13 -8z"/>
<path d="M23795 14690 c-38 -10 -72 -19 -74 -19 -3 -1 17 -22 45 -48 99 -95
96 -93 134 -83 19 5 55 14 79 20 l44 12 -69 69 c-38 38 -73 68 -79 68 -5 -1
-41 -9 -80 -19z"/>
<path d="M1570 14552 c0 -4 14 -48 30 -98 l31 -91 62 -11 c34 -7 72 -15 84
-18 21 -6 21 -4 -11 87 l-34 94 -81 22 c-44 12 -81 18 -81 15z"/>
<path d="M23884 14338 l-80 -19 70 -74 71 -73 78 16 c42 9 77 20 77 24 0 5
-30 39 -67 77 l-68 68 -81 -19z"/>
<path d="M1494 14173 c3 -10 19 -52 34 -93 l27 -74 83 -17 c57 -11 82 -13 79
-5 -47 126 -71 185 -74 182 -2 -2 -32 3 -66 10 -83 18 -89 17 -83 -3z"/>
<path d="M23950 13978 c-25 -5 -49 -14 -54 -18 -5 -6 17 -37 56 -76 l64 -66
77 12 c42 7 77 17 77 22 0 5 -28 39 -62 74 -66 69 -72 71 -158 52z"/>
<path d="M1423 13818 c2 -7 20 -50 38 -94 l33 -82 73 -12 c41 -7 76 -10 79 -7
4 3 -9 46 -29 94 l-35 88 -63 12 c-84 16 -102 16 -96 1z"/>
<path d="M24050 13629 c-25 -4 -60 -11 -78 -14 l-32 -6 65 -77 66 -78 74 11
c40 5 77 13 80 17 7 7 -110 151 -124 154 -3 1 -26 -2 -51 -7z"/>
<path d="M1386 13404 c14 -32 32 -73 40 -90 12 -29 19 -32 71 -39 32 -3 68 -9
81 -12 31 -7 29 7 -14 98 -40 85 -40 85 -144 96 l-61 6 27 -59z"/>
<path d="M24062 13260 c-29 -4 -56 -11 -59 -14 -5 -5 22 -41 100 -132 16 -19
27 -21 77 -17 118 9 117 7 43 96 -69 83 -65 81 -161 67z"/>
<path d="M1319 13078 c5 -13 26 -56 46 -96 34 -67 39 -72 68 -72 18 0 56 -3
85 -7 l54 -6 -48 94 c-26 52 -47 95 -48 95 -1 1 -38 5 -84 9 l-82 7 9 -24z"/>
<path d="M24069 12891 l-37 -6 62 -78 61 -78 80 7 c44 4 82 8 83 9 2 2 -22 37
-53 79 l-57 76 -52 -1 c-28 -1 -67 -5 -87 -8z"/>
<path d="M1280 12724 c0 -5 20 -45 43 -89 l43 -80 84 -7 c46 -4 85 -6 86 -5 2
1 -20 42 -47 90 -44 75 -54 87 -77 87 -15 0 -51 3 -79 6 -29 4 -53 3 -53 -2z"/>
<path d="M24098 12593 c7 -3 16 -2 19 1 4 3 -2 6 -13 5 -11 0 -14 -3 -6 -6z"/>
<path d="M24093 12533 c-13 -2 -23 -6 -23 -8 0 -5 71 -108 98 -143 16 -21 22
-22 95 -16 42 4 77 10 77 14 0 4 -24 41 -53 81 l-52 74 -60 1 c-33 1 -70 0
-82 -3z"/>
<path d="M1261 12362 c-5 -2 13 -43 41 -92 l50 -90 85 0 85 0 -14 23 c-8 12
-32 52 -53 89 l-38 67 -74 3 c-40 2 -77 2 -82 0z"/>
<path d="M24288 12343 c6 -2 18 -2 25 0 6 3 1 5 -13 5 -14 0 -19 -2 -12 -5z"/>
<path d="M24086 12158 c4 -7 29 -46 56 -85 l49 -73 74 0 c40 0 77 5 80 10 4 6
-15 43 -42 83 l-49 72 -88 3 c-69 2 -86 0 -80 -10z"/>
<path d="M1378 12083 c17 -2 47 -2 65 0 17 2 3 4 -33 4 -36 0 -50 -2 -32 -4z"/>
<path d="M1293 11900 l52 -90 89 0 88 0 -18 28 c-10 15 -35 55 -57 90 l-39 62
-84 0 -83 0 52 -90z"/>
<path d="M24148 11833 c17 -2 47 -2 65 0 17 2 3 4 -33 4 -36 0 -50 -2 -32 -4z"/>
<path d="M24090 11802 c0 -4 19 -38 43 -74 23 -37 47 -74 52 -83 8 -13 25 -15
91 -13 l82 3 -52 88 -51 87 -82 0 c-46 0 -83 -4 -83 -8z"/>
<path d="M1266 11578 c15 -24 40 -63 57 -87 l29 -43 75 5 c41 3 76 7 79 10 3
3 -16 38 -43 79 l-48 73 -88 3 -88 3 27 -43z"/>
<path d="M24168 11573 c6 -2 18 -2 25 0 6 3 1 5 -13 5 -14 0 -19 -2 -12 -5z"/>
<path d="M24080 11443 c0 -1 22 -39 48 -85 l48 -83 82 -3 c94 -3 92 -10 30
100 l-39 67 -84 3 c-47 2 -85 2 -85 1z"/>
<path d="M1268 11252 c-13 -6 -6 -21 43 -89 l60 -82 82 6 c45 3 83 6 83 7 1 1
-25 38 -58 84 l-60 82 -67 -1 c-36 0 -73 -3 -83 -7z"/>
<path d="M24091 11023 c18 -32 40 -70 49 -85 10 -18 26 -29 45 -32 60 -9 135
-15 135 -10 0 10 -83 169 -91 174 -5 3 -45 7 -90 9 l-81 2 33 -58z"/>
<path d="M1306 10881 l-28 -6 48 -64 c27 -35 54 -70 60 -78 9 -10 30 -11 88
-6 42 3 78 9 81 12 2 4 -21 39 -51 79 l-55 72 -57 -1 c-31 -1 -70 -4 -86 -8z"/>
<path d="M24077 10631 c42 -85 47 -90 81 -95 84 -12 132 -16 132 -11 0 3 -21
45 -46 94 l-45 88 -46 7 c-25 3 -63 6 -83 6 l-37 0 44 -89z"/>
<path d="M1392 10525 l-84 -10 68 -83 c37 -46 72 -81 79 -78 6 2 42 7 78 11
37 4 67 9 67 12 0 5 -84 113 -110 142 -13 15 -25 16 -98 6z"/>
<path d="M24000 10351 c0 -7 16 -47 36 -90 l35 -78 81 -12 c44 -7 81 -11 83
-9 8 9 -74 172 -91 178 -39 15 -144 22 -144 11z"/>
<path d="M1427 10156 l-68 -11 32 -40 c75 -94 100 -114 133 -109 17 2 54 7 81
10 28 4 51 7 52 8 7 6 -134 156 -146 155 -9 -1 -47 -6 -84 -13z"/>
<path d="M23943 9999 c3 -8 20 -50 38 -94 18 -44 33 -81 34 -83 3 -4 158 -32
161 -29 6 6 -67 182 -78 188 -6 4 -34 10 -62 13 -28 4 -62 10 -75 13 -18 5
-23 3 -18 -8z"/>
<path d="M1503 9796 c-39 -6 -74 -13 -76 -16 -3 -3 25 -38 61 -78 l67 -72 78
15 c43 8 81 15 84 15 2 0 -26 34 -64 75 -37 41 -70 74 -73 73 -3 0 -37 -6 -77
-12z"/>
<path d="M23880 9647 c0 -3 15 -45 34 -94 l34 -88 78 -17 c44 -9 79 -16 80
-15 1 1 -12 43 -29 94 l-31 92 -61 10 c-33 6 -70 14 -82 17 -13 4 -23 4 -23 1z"/>
<path d="M1561 9434 c-36 -8 -65 -15 -67 -17 -1 -1 28 -35 65 -76 l67 -74 82
18 c45 10 82 21 82 24 0 14 -136 141 -150 140 -8 -1 -44 -7 -79 -15z"/>
<path d="M23835 9198 l33 -93 76 -19 c42 -10 79 -16 81 -14 5 5 -51 177 -59
186 -6 5 -125 31 -148 32 -14 0 -11 -13 17 -92z"/>
<path d="M1643 9073 c-35 -8 -63 -18 -63 -23 0 -11 128 -130 141 -130 13 0
143 32 148 37 3 2 -24 33 -59 68 -70 71 -72 71 -167 48z"/>
<path d="M23720 8936 c0 -14 48 -178 54 -183 8 -8 150 -42 155 -38 5 6 -47
177 -57 186 -16 15 -152 46 -152 35z"/>
<path d="M1737 8720 c-33 -10 -61 -21 -63 -23 -3 -2 29 -35 70 -71 l75 -67 73
22 c40 13 75 25 77 26 11 8 -136 132 -154 132 -11 -1 -46 -9 -78 -19z"/>
<path d="M23623 8575 c4 -8 16 -50 28 -94 l22 -79 74 -22 c41 -12 76 -20 79
-18 2 3 -3 29 -11 59 -8 30 -20 71 -25 91 -10 35 -14 38 -79 58 -81 24 -95 25
-88 5z"/>
<path d="M1848 8368 c-38 -12 -68 -24 -68 -28 0 -4 26 -29 58 -56 97 -84 82
-79 172 -49 l80 27 -78 63 c-42 36 -81 64 -87 64 -5 -1 -40 -10 -77 -21z"/>
<path d="M23514 8228 c3 -13 13 -57 22 -98 l17 -75 79 -27 80 -27 -7 40 c-4
23 -14 68 -24 102 l-16 60 -69 24 c-86 28 -90 28 -82 1z"/>
<path d="M1973 8021 c-39 -14 -71 -30 -70 -36 1 -5 32 -34 70 -64 l69 -54 57
18 c112 35 111 33 34 95 -37 30 -72 57 -78 60 -5 3 -42 -5 -82 -19z"/>
<path d="M23395 7888 c3 -13 12 -56 20 -97 9 -41 17 -76 19 -78 9 -9 140 -53
144 -48 3 3 -3 46 -14 97 l-19 92 -60 23 c-98 38 -97 38 -90 11z"/>
<path d="M2095 7674 l-79 -31 82 -61 82 -61 72 30 c39 16 73 31 75 33 2 2 -31
30 -74 63 l-79 59 -79 -32z"/>
<path d="M23261 7554 c1 -39 27 -166 35 -174 5 -4 42 -22 82 -39 62 -26 72
-28 68 -13 -3 9 -10 54 -17 99 l-12 82 -66 27 c-36 14 -72 28 -78 31 -8 3 -13
-2 -12 -13z"/>
<path d="M2275 7350 c-11 -4 -42 -18 -69 -29 l-48 -21 83 -59 c80 -58 84 -59
113 -46 17 7 50 21 73 32 24 10 43 20 43 23 0 10 -149 110 -162 109 -7 0 -22
-4 -33 -9z"/>
<path d="M23125 7183 c17 -141 15 -135 80 -170 88 -47 89 -47 81 45 -12 127
-5 118 -119 163 l-48 19 6 -57z"/>
<path d="M2381 6994 c-85 -39 -88 -30 31 -102 l67 -41 77 38 78 37 -86 52
c-47 29 -87 52 -89 52 -2 -1 -37 -16 -78 -36z"/>
<path d="M22964 6883 c3 -16 8 -60 11 -99 l7 -71 69 -33 c38 -19 71 -31 75
-28 3 4 2 47 -2 98 l-7 91 -68 35 c-83 41 -92 42 -85 7z"/>
<path d="M2543 6667 c-35 -17 -63 -35 -63 -39 0 -4 24 -22 53 -39 28 -17 66
-39 82 -49 l30 -18 73 40 73 40 -81 49 c-45 27 -87 49 -93 48 -7 0 -40 -14
-74 -32z"/>
<path d="M22804 6544 c3 -26 6 -70 6 -99 l0 -52 70 -36 c38 -21 72 -37 75 -37
7 0 6 116 -1 161 -6 33 -12 39 -81 73 l-76 37 7 -47z"/>
<path d="M2718 6342 c-37 -20 -68 -40 -68 -43 0 -3 38 -27 85 -53 l85 -47 70
42 c63 37 69 43 53 54 -24 15 -150 85 -155 85 -1 0 -33 -17 -70 -38z"/>
<path d="M22634 6174 c7 -110 2 -102 98 -157 l49 -28 -3 102 -3 101 -74 41
-73 40 6 -99z"/>
<path d="M2907 6026 c-89 -51 -89 -50 2 -95 44 -23 87 -41 95 -41 15 0 136 71
136 80 0 5 -166 91 -173 90 -1 0 -28 -16 -60 -34z"/>
<path d="M22446 5952 c-2 -4 -3 -47 -2 -97 l1 -90 70 -48 70 -48 3 102 c2 76
-1 105 -10 111 -81 51 -128 76 -132 70z"/>
<path d="M3085 5706 l-70 -44 85 -41 c46 -23 90 -41 96 -41 7 0 43 19 79 43
l67 42 -88 42 c-49 23 -91 42 -94 42 -3 1 -36 -19 -75 -43z"/>
<path d="M22248 5557 l-3 -102 60 -41 c33 -22 66 -44 73 -48 9 -6 12 16 12 97
l0 103 -70 47 -69 46 -3 -102z"/>
<path d="M3282 5396 l-62 -43 91 -42 91 -42 70 47 c38 26 65 50 61 54 -13 12
-160 70 -175 69 -7 0 -41 -19 -76 -43z"/>
<path d="M22046 5289 c-13 -132 -13 -132 57 -180 34 -23 65 -47 69 -53 4 -6 8
14 8 44 0 30 3 78 6 106 l6 51 -66 46 c-37 26 -68 47 -70 47 -2 0 -6 -28 -10
-61z"/>
<path d="M3505 5103 c-33 -24 -61 -48 -62 -51 -2 -4 37 -24 87 -44 l89 -36 66
50 c37 27 65 51 63 53 -4 4 -178 75 -181 74 -1 0 -29 -21 -62 -46z"/>
<path d="M21836 5028 c-3 -18 -8 -62 -11 -98 l-6 -66 60 -47 c34 -26 65 -47
70 -47 4 0 11 44 15 97 8 109 16 92 -81 163 l-42 31 -5 -33z"/>
<path d="M3722 4806 c-30 -24 -53 -47 -53 -52 1 -5 40 -23 88 -41 l86 -32 64
50 c34 28 63 52 63 54 0 6 -162 65 -178 64 -10 0 -41 -20 -70 -43z"/>
<path d="M21603 4678 l-11 -93 57 -52 c31 -29 59 -53 63 -53 10 0 16 28 24
115 l6 81 -57 47 c-32 26 -60 47 -64 47 -4 0 -12 -42 -18 -92z"/>
<path d="M3952 4519 c-35 -28 -60 -54 -55 -58 4 -4 47 -20 94 -36 l86 -29 62
54 c34 29 58 57 54 60 -5 4 -40 17 -80 29 -40 12 -78 23 -85 26 -7 2 -42 -18
-76 -46z"/>
<path d="M21370 4394 l-13 -96 59 -53 c32 -29 60 -52 62 -50 3 3 32 173 32
190 0 9 -112 105 -122 105 -2 0 -10 -43 -18 -96z"/>
<path d="M4186 4235 c-39 -37 -54 -56 -45 -59 8 -3 50 -17 93 -30 91 -28 92
-28 169 51 l38 40 -89 26 c-49 15 -93 27 -98 27 -5 -1 -35 -25 -68 -55z"/>
<path d="M21140 4218 c0 -7 -7 -51 -15 -98 l-15 -84 57 -58 c31 -32 59 -56 61
-53 4 3 40 168 42 186 0 3 -29 31 -65 63 -36 31 -65 51 -65 44z"/>
<path d="M4436 3964 c-32 -30 -57 -56 -55 -58 2 -2 45 -15 94 -29 l91 -24 63
58 c39 37 58 61 49 63 -28 10 -169 46 -176 46 -4 0 -33 -25 -66 -56z"/>
<path d="M20873 3868 l-20 -93 56 -57 c30 -32 58 -58 61 -58 3 0 15 42 27 93
l21 92 -56 58 c-31 31 -59 57 -63 57 -3 0 -15 -42 -26 -92z"/>
<path d="M4700 3707 c-29 -30 -53 -58 -52 -63 0 -5 41 -18 91 -30 l90 -21 55
56 c31 31 56 59 56 63 0 3 -35 14 -77 23 -43 9 -85 18 -94 21 -10 3 -36 -16
-69 -49z"/>
<path d="M20634 3684 c-4 -16 -15 -60 -25 -97 l-17 -69 51 -56 c28 -32 54 -58
58 -60 7 -3 30 65 47 144 9 42 9 42 -49 104 l-58 62 -7 -28z"/>
<path d="M4958 3447 c-31 -34 -55 -63 -54 -64 1 -2 45 -12 97 -22 l94 -20 56
62 c32 34 56 63 55 64 -1 2 -38 9 -81 18 -43 8 -85 17 -94 20 -11 3 -35 -16
-73 -58z"/>
<path d="M20355 3394 c-32 -128 -31 -132 25 -193 27 -30 51 -53 54 -50 2 2 15
44 29 93 18 59 23 94 17 105 -4 9 -31 38 -58 65 l-50 48 -17 -68z"/>
<path d="M5233 3203 c-26 -32 -52 -61 -56 -64 -4 -3 25 -11 65 -18 145 -25
127 -29 186 43 l52 65 -37 6 c-21 4 -60 11 -86 16 -71 14 -72 14 -124 -48z"/>
<path d="M20076 3129 l-28 -98 47 -60 c26 -34 51 -61 54 -61 4 0 20 42 36 94
l30 93 -56 65 -55 64 -28 -97z"/>
<path d="M5508 2961 c-27 -32 -48 -61 -48 -64 0 -8 188 -30 199 -23 6 4 31 33
56 65 52 69 55 66 -80 76 l-80 5 -47 -59z"/>
<path d="M19820 2979 c0 -8 -13 -50 -30 -93 l-29 -79 46 -64 c26 -34 50 -63
54 -63 3 0 21 40 39 90 l32 90 -42 54 c-51 67 -70 84 -70 65z"/>
<path d="M5797 2732 l-56 -70 77 -6 c42 -4 88 -9 102 -12 22 -4 32 4 73 60 26
35 47 66 47 69 0 3 -26 8 -57 12 -32 3 -74 8 -94 11 -34 5 -38 2 -92 -64z"/>
<path d="M19534 2753 c-4 -10 -20 -52 -36 -94 l-30 -75 48 -67 c55 -76 49 -79
98 45 l27 67 -27 43 c-15 24 -38 56 -50 71 -22 26 -25 27 -30 10z"/>
<path d="M6092 2512 l-50 -70 99 -7 c55 -4 102 -5 105 -3 9 10 93 132 91 134
-1 1 -45 4 -98 8 l-96 7 -51 -69z"/>
<path d="M19207 2463 l-37 -88 47 -70 46 -70 39 84 c21 46 38 90 38 98 0 16
-80 132 -91 133 -3 0 -22 -39 -42 -87z"/>
<path d="M6396 2304 c-25 -37 -44 -69 -43 -70 1 -1 46 -4 100 -5 l97 -3 41 63
c22 34 39 65 36 67 -3 3 -45 8 -95 11 l-90 6 -46 -69z"/>
<path d="M18904 2262 l-40 -88 44 -69 45 -70 45 91 45 90 -44 67 c-24 37 -46
67 -49 67 -3 0 -23 -40 -46 -88z"/>
<path d="M6703 2102 l-42 -67 87 -6 c48 -3 94 -2 103 2 13 7 70 92 87 132 2 4
-41 7 -95 7 l-98 -1 -42 -67z"/>
<path d="M18596 2077 c-25 -46 -46 -87 -46 -90 0 -16 84 -137 90 -130 4 4 26
43 49 86 l42 78 -42 67 c-23 37 -43 68 -44 70 -2 2 -24 -34 -49 -81z"/>
<path d="M7130 1982 l-75 -3 -43 -76 -42 -76 76 7 c43 3 89 6 104 6 18 0 30 7
38 23 6 12 25 46 42 75 l30 52 -27 -2 c-16 -1 -62 -4 -103 -6z"/>
<path d="M18279 1892 l-46 -87 36 -67 c20 -36 39 -69 42 -72 3 -3 27 33 53 81
l48 88 -32 60 c-51 95 -49 95 -101 -3z"/>
<path d="M7468 1811 c-48 -4 -89 -9 -91 -11 -7 -8 -77 -136 -77 -142 0 -7 173
4 190 12 21 11 95 150 78 148 -7 0 -52 -4 -100 -7z"/>
<path d="M17963 1724 l-52 -86 38 -75 38 -76 40 64 c70 112 68 99 25 184 l-38
76 -51 -87z"/>
<path d="M7815 1643 c-121 -14 -111 -9 -149 -78 -20 -35 -36 -68 -36 -73 0 -6
14 -9 33 -7 54 7 121 14 144 14 18 1 29 15 53 67 16 37 30 71 30 75 0 9 -17 9
-75 2z"/>
<path d="M17636 1564 c-27 -42 -49 -81 -49 -87 0 -7 15 -43 32 -80 l32 -68 55
78 c30 42 54 84 54 92 0 12 -67 142 -73 141 -1 0 -24 -35 -51 -76z"/>
<path d="M8115 1486 l-80 -11 -38 -74 c-20 -41 -36 -76 -34 -78 3 -2 47 2 99
8 l96 12 31 71 c17 39 31 74 31 79 0 8 4 8 -105 -7z"/>
<path d="M17302 1410 c-40 -59 -52 -85 -47 -101 17 -52 58 -130 65 -122 5 4
31 41 58 81 l50 73 -15 37 c-18 43 -52 112 -56 112 -1 -1 -26 -36 -55 -80z"/>
<path d="M8463 1341 c-51 -9 -96 -20 -102 -26 -11 -12 -62 -137 -58 -141 2 -2
46 4 98 13 l96 16 31 75 c17 42 30 77 29 77 -1 1 -43 -6 -94 -14z"/>
<path d="M17005 1322 c-11 -14 -36 -50 -57 -79 l-36 -53 26 -75 c15 -41 30
-75 34 -75 4 0 32 35 62 78 60 84 60 80 17 173 l-26 58 -20 -27z"/>
<path d="M8791 1207 l-94 -22 -28 -74 c-16 -41 -27 -76 -25 -79 7 -7 181 31
192 42 14 14 66 156 56 155 -4 0 -49 -10 -101 -22z"/>
<path d="M16680 1212 c0 -4 -25 -39 -56 -76 l-57 -69 23 -66 c13 -36 26 -72
30 -79 9 -18 133 136 125 157 -4 9 -16 44 -28 79 -12 34 -25 62 -29 62 -5 0
-8 -4 -8 -8z"/>
<path d="M9121 1080 c-40 -10 -74 -20 -76 -22 -1 -2 -14 -36 -29 -75 -23 -66
-24 -73 -8 -73 19 0 171 35 176 41 4 4 46 138 46 145 0 7 -34 2 -109 -16z"/>
<path d="M16282 1024 l-64 -74 22 -68 c13 -37 26 -71 30 -75 4 -4 35 24 70 63
l63 71 -23 75 c-13 41 -26 77 -29 79 -4 2 -35 -30 -69 -71z"/>
<path d="M9477 972 l-87 -25 -25 -81 c-13 -44 -24 -81 -22 -82 1 -1 44 11 96
26 l95 26 23 75 c12 41 23 77 23 82 0 9 0 9 -103 -21z"/>
<path d="M15933 917 l-61 -72 22 -84 22 -84 22 28 c12 15 42 50 68 78 26 29
44 57 41 66 -24 85 -43 141 -47 140 -3 0 -33 -33 -67 -72z"/>
<path d="M9833 871 c-45 -14 -86 -30 -92 -36 -12 -12 -44 -135 -37 -142 2 -3
45 6 95 18 l90 23 21 76 c11 42 20 79 20 83 0 9 -3 9 -97 -22z"/>
<path d="M15587 824 l-69 -73 18 -71 c9 -39 20 -72 24 -75 3 -2 37 27 74 64
l68 68 -22 79 c-12 44 -23 79 -24 80 0 0 -32 -32 -69 -72z"/>
<path d="M10180 782 l-84 -27 -19 -78 c-11 -43 -17 -80 -15 -82 5 -6 158 44
174 57 6 4 17 36 23 69 7 34 15 67 18 75 7 18 4 18 -97 -14z"/>
<path d="M15232 744 l-72 -69 16 -82 c9 -46 20 -83 23 -83 4 0 37 31 75 69
l68 69 -19 82 -18 83 -73 -69z"/>
<path d="M10540 705 c-47 -18 -88 -39 -92 -47 -4 -7 -14 -43 -22 -80 -17 -82
-18 -82 99 -35 l79 32 17 83 c9 45 13 82 10 81 -3 0 -44 -15 -91 -34z"/>
<path d="M14875 669 l-68 -66 13 -81 c14 -94 10 -94 99 -9 l61 59 -11 66 c-18
105 -18 105 -94 31z"/>
<path d="M10892 635 c-41 -18 -77 -37 -81 -41 -9 -11 -34 -145 -28 -151 3 -2
44 11 93 29 l89 33 12 55 c15 75 16 110 1 109 -7 -1 -46 -16 -86 -34z"/>
<path d="M14533 621 c-28 -27 -60 -55 -71 -62 -18 -13 -18 -20 -10 -84 5 -38
11 -76 14 -83 5 -16 154 105 154 125 0 30 -23 153 -29 153 -3 0 -29 -22 -58
-49z"/>
<path d="M11253 582 c-89 -40 -84 -33 -99 -150 -8 -60 -17 -60 107 -4 l66 30
7 59 c4 32 10 68 13 81 7 28 4 28 -94 -16z"/>
<path d="M14160 562 l-75 -58 3 -65 c4 -120 2 -119 90 -48 42 35 78 63 78 63
1 1 -4 38 -10 83 l-11 83 -75 -58z"/>
<path d="M11635 547 c-111 -51 -105 -45 -116 -132 -6 -42 -8 -79 -5 -82 2 -2
44 16 93 41 l90 45 6 77 c4 43 6 79 4 80 -1 2 -34 -12 -72 -29z"/>
<path d="M13792 522 l-73 -57 6 -80 c4 -44 9 -82 10 -83 2 -2 37 22 79 53 55
42 76 64 76 80 0 45 -13 145 -19 145 -3 -1 -39 -27 -79 -58z"/>
<path d="M11977 507 c-84 -46 -82 -43 -92 -150 l-6 -68 78 42 c43 23 83 47 89
53 13 13 29 166 17 166 -4 0 -43 -19 -86 -43z"/>
<path d="M13428 493 c-86 -62 -84 -57 -70 -171 l7 -53 84 62 c78 58 83 63 77
91 -3 17 -6 52 -6 79 0 27 -3 49 -7 49 -5 -1 -43 -26 -85 -57z"/>
<path d="M12708 482 l-88 -56 0 -84 0 -84 38 22 c20 12 60 36 89 54 l52 31 1
88 c0 48 -1 87 -2 86 -2 -1 -42 -26 -90 -57z"/>
<path d="M12334 484 l-81 -46 -2 -84 -2 -85 23 12 c49 25 143 84 150 94 10 13
10 155 1 155 -5 0 -44 -21 -89 -46z"/>
<path d="M13063 479 l-73 -50 0 -85 0 -85 42 25 c23 14 62 39 86 56 l43 31 -2
62 c-3 68 -8 97 -18 96 -3 0 -39 -22 -78 -50z"/>
</g>
</svg>
